<?xml version="1.0" standalone="no"?>
<!DOCTYPE svg PUBLIC "-//W3C//DTD SVG 20010904//EN"
 "http://www.w3.org/TR/2001/REC-SVG-20010904/DTD/svg10.dtd">
<svg version="1.0" xmlns="http://www.w3.org/2000/svg"
 width="444.000000pt" height="444.000000pt" viewBox="0 0 444.000000 444.000000"
 preserveAspectRatio="xMidYMid meet">
<metadata>
Created by potrace 1.11, written by Peter Selinger 2001-2013
</metadata>
<g transform="translate(0.000000,444.000000) scale(0.100000,-0.100000)"
fill="#000000" stroke="none">
<path d="M1480 4345 c0 -5 -28 -11 -63 -11 -60 -2 -165 -10 -237 -18 -34 -4
-100 -12 -185 -22 -44 -4 -88 -11 -121 -18 -12 -2 -39 -7 -60 -10 -48 -8 -102
-17 -129 -23 -30 -6 -62 -12 -87 -17 -13 -2 -45 -10 -73 -16 -27 -7 -57 -13
-65 -15 -8 -2 -15 -4 -15 -5 0 -2 -22 -7 -60 -15 -16 -3 -45 -10 -63 -16 -18
-6 -39 -12 -45 -13 -7 -2 -32 -9 -57 -16 -25 -7 -52 -15 -60 -17 -33 -8 -45
-12 -47 -13 -2 -2 -7 -4 -13 -5 -5 -1 -11 -3 -12 -4 -2 -2 -14 -5 -27 -7 -14
-2 -26 -6 -28 -8 -2 -1 -4 -44 -4 -95 0 -62 -4 -89 -11 -85 -7 5 -8 2 -3 -7
14 -21 15 -60 3 -53 -7 5 -8 2 -2 -7 12 -20 14 -39 3 -39 -6 0 -6 -7 0 -19 6
-10 7 -21 4 -25 -11 -11 -11 -56 0 -56 6 0 6 -5 0 -12 -5 -7 -9 -53 -8 -103 1
-50 -3 -96 -9 -104 -8 -11 -8 -13 0 -8 11 6 12 -63 0 -81 -3 -6 0 -13 6 -15
10 -4 10 -8 -1 -15 -11 -8 -11 -10 0 -15 12 -5 12 -6 0 -6 -11 -1 -11 -4 -1
-16 9 -11 9 -15 1 -15 -9 0 -9 -5 -1 -20 8 -15 8 -20 -2 -20 -9 0 -9 -3 2 -10
11 -7 11 -10 2 -10 -9 0 -10 -5 -2 -19 12 -24 13 -34 1 -27 -9 6 -6 -58 4 -74
3 -6 1 -10 -4 -10 -6 0 -11 -5 -11 -11 0 -5 3 -8 8 -6 4 3 7 -6 7 -19 0 -13
-4 -24 -10 -24 -6 0 -3 -5 5 -10 8 -5 11 -10 5 -10 -5 0 -10 -11 -10 -24 0
-13 3 -22 8 -19 4 2 7 -1 7 -6 0 -6 -4 -11 -9 -11 -6 0 -6 -12 -1 -30 5 -17 5
-30 0 -30 -5 0 -8 -6 -6 -12 15 -47 16 -69 4 -62 -10 6 -9 3 1 -9 11 -14 11
-17 0 -17 -11 0 -11 -2 1 -10 13 -8 13 -10 1 -10 -12 0 -12 -3 -3 -12 16 -16
15 -31 0 -22 -10 6 -10 5 -1 -7 10 -12 10 -18 1 -27 -7 -7 -8 -12 -3 -12 6 0
10 -69 10 -170 0 -94 3 -170 8 -170 4 0 5 -6 1 -12 -11 -17 -12 -48 -3 -48 9
0 7 -20 -4 -37 -4 -6 -3 -14 3 -18 5 -3 10 -11 10 -16 0 -6 -5 -7 -10 -4 -6 4
-5 -4 1 -19 9 -19 9 -29 0 -40 -7 -9 -8 -17 -2 -20 8 -5 14 -82 13 -174 -1
-19 3 -44 8 -57 5 -13 6 -26 2 -29 -10 -10 -9 -46 1 -46 5 0 4 -6 -2 -13 -6
-8 -8 -17 -4 -21 4 -3 8 -41 10 -84 1 -42 5 -89 7 -104 4 -18 1 -28 -7 -28 -8
0 -8 -3 2 -9 8 -5 12 -18 8 -30 -3 -12 -1 -21 4 -21 5 0 4 -11 -1 -25 -5 -14
-6 -25 -2 -25 5 0 8 -27 8 -60 -1 -34 3 -60 9 -60 5 0 3 -5 -5 -10 -8 -5 -10
-10 -5 -10 6 0 10 -16 9 -35 -1 -19 2 -37 6 -40 5 -3 5 -18 0 -34 -4 -15 -5
-33 -1 -39 7 -11 14 -103 15 -189 0 -24 3 -43 6 -43 4 0 7 -17 7 -37 0 -75 8
-183 13 -183 3 0 5 -24 5 -53 0 -28 5 -55 10 -59 6 -5 5 -8 -4 -8 -9 0 -10 -4
-4 -12 6 -7 10 -20 11 -28 0 -26 12 -194 16 -226 2 -18 7 -37 11 -44 6 -9 4
-11 -4 -5 -10 6 -11 3 -3 -12 6 -10 9 -33 8 -51 -1 -18 1 -35 4 -37 4 -2 6
-14 5 -27 -1 -13 3 -29 9 -37 8 -11 8 -13 -1 -8 -8 5 -11 -1 -9 -18 3 -29 10
-38 34 -41 86 -13 115 -17 167 -20 33 -2 85 -6 115 -8 30 -3 93 -8 140 -11 47
-3 97 -7 113 -9 15 -2 27 2 27 8 0 7 3 7 8 1 10 -14 249 -19 257 -5 3 6 10 8
14 6 4 -3 34 2 67 11 83 21 139 33 172 35 6 1 12 5 12 10 0 5 3 7 8 4 4 -2 57
9 117 26 61 16 117 31 125 34 26 6 194 55 208 59 7 3 14 5 17 5 3 0 25 9 50
20 25 11 45 18 45 15 0 -2 27 7 59 20 33 13 62 20 65 17 3 -3 6 1 6 8 0 7 3
11 6 7 4 -3 23 1 43 9 20 9 41 17 46 18 11 3 9 2 152 62 56 23 104 40 107 36
3 -3 6 0 6 6 0 7 3 11 8 11 15 -3 72 23 72 34 0 6 3 8 6 5 7 -8 197 81 206 96
4 6 8 7 8 3 0 -9 103 44 108 56 2 4 10 7 18 7 8 0 14 5 14 12 0 6 3 9 6 5 7
-6 117 52 122 65 2 5 8 6 13 2 5 -3 9 0 9 5 0 6 7 11 15 11 8 0 15 3 15 8 0 4
18 16 40 26 22 11 40 22 40 25 0 4 17 15 38 26 69 37 202 133 202 146 0 5 4 8
8 6 8 -2 61 34 86 59 6 6 16 13 22 15 12 4 92 70 131 106 12 12 23 20 23 18 0
-2 38 33 85 79 47 45 85 80 85 77 0 -3 9 7 19 22 10 16 22 28 27 28 5 -1 9 2
9 7 0 4 19 26 43 50 23 23 39 42 35 42 -3 0 7 11 23 25 16 14 26 25 22 25 -4
0 6 14 24 30 17 17 28 30 24 30 -4 0 4 11 18 24 15 13 26 31 26 40 0 10 4 15
8 12 4 -3 16 11 27 30 10 19 23 34 28 34 6 0 8 3 4 6 -3 4 -1 12 6 20 29 33
37 44 31 44 -3 0 -1 7 6 15 7 8 10 15 6 15 -3 0 3 9 14 20 11 11 22 31 26 45
3 14 10 25 15 25 5 0 9 9 9 20 0 11 4 20 10 20 5 0 10 3 9 8 -2 16 14 51 22
47 4 -3 6 4 4 15 -2 11 1 20 6 20 6 0 7 5 4 10 -3 6 -1 10 4 10 6 0 10 3 9 8
-3 14 14 62 22 62 5 0 7 8 5 18 -1 9 1 22 6 27 4 6 10 22 13 37 2 14 9 35 15
46 8 15 8 22 -2 25 -9 4 -9 6 1 6 6 1 12 13 12 27 0 14 3 23 8 21 4 -3 8 9 9
26 4 76 6 97 12 97 3 0 7 28 9 63 8 172 8 214 0 235 -5 15 -4 22 5 22 8 0 8 3
-2 9 -11 7 -11 10 0 15 10 4 11 8 3 11 -7 3 -9 15 -6 27 4 16 2 19 -9 13 -11
-7 -12 -6 -4 6 9 12 11 34 5 49 -4 12 -10 48 -14 90 -4 46 -10 69 -28 106 -5
11 -8 24 -7 30 1 5 -3 22 -9 37 -7 16 -12 34 -12 42 0 8 -4 17 -10 20 -5 3
-10 15 -10 26 0 10 -4 19 -10 19 -5 0 -10 6 -10 14 0 16 -50 114 -80 156 -11
15 -20 33 -20 39 0 6 -4 11 -8 11 -5 0 -13 8 -18 19 -20 41 -107 137 -215 237
-56 51 -212 160 -259 181 -8 4 -17 9 -20 13 -21 24 -363 173 -374 162 -3 -3
-6 0 -6 7 0 7 -4 9 -10 6 -5 -3 -31 3 -57 14 -41 17 -66 24 -118 36 -5 2 -39
11 -75 20 -36 9 -74 19 -85 20 -98 17 -145 25 -175 31 -19 4 -46 8 -60 10 -14
1 -25 3 -25 4 0 1 -18 4 -40 6 -64 6 -190 22 -190 24 0 2 -80 7 -201 14 -39 2
-75 5 -80 8 -11 6 -592 1 -619 -5 -11 -2 -23 1 -27 7 -5 6 -8 7 -8 1z m230
-430 c30 0 58 5 62 10 5 7 8 7 8 0 0 -5 26 -10 58 -11 72 -1 234 -13 281 -20
52 -8 76 -12 76 -14 0 0 18 -3 40 -5 22 -2 51 -6 65 -9 60 -13 76 -17 100 -22
14 -4 40 -8 58 -11 17 -3 32 -10 32 -15 0 -5 6 -8 13 -5 11 4 60 -11 112 -34
11 -4 26 -10 34 -11 19 -4 215 -98 221 -107 3 -3 17 -12 32 -20 15 -8 37 -22
47 -33 11 -10 25 -18 31 -18 5 0 10 -4 10 -10 0 -5 5 -10 11 -10 14 0 203
-190 196 -197 -3 -2 2 -13 11 -23 29 -32 36 -43 71 -113 19 -37 34 -74 34 -82
0 -8 5 -15 10 -15 6 0 7 -3 4 -6 -3 -4 0 -16 8 -26 7 -11 11 -26 9 -33 -3 -7
-1 -16 5 -19 6 -4 8 -13 4 -21 -3 -8 -1 -15 4 -15 5 0 10 -6 11 -12 0 -7 2
-30 3 -50 1 -21 5 -36 8 -33 4 2 6 -21 6 -51 -1 -31 4 -54 10 -54 5 0 4 -4 -4
-9 -10 -6 -11 -13 -2 -29 14 -27 14 -35 -1 -26 -7 5 -8 3 -2 -7 12 -20 14 -39
3 -39 -6 0 -7 -6 -3 -12 10 -15 13 -48 5 -48 -3 0 -6 -32 -6 -71 0 -39 -3 -72
-6 -75 -3 -2 -6 -18 -7 -36 -3 -45 -6 -60 -16 -77 -7 -10 -6 -12 4 -6 9 5 11
4 6 -3 -7 -11 -11 -26 -22 -82 -3 -14 -9 -26 -15 -28 -5 -2 -9 -8 -9 -13 0 -6
6 -7 13 -3 8 6 8 3 -1 -9 -8 -9 -11 -21 -8 -26 4 -5 1 -13 -5 -16 -5 -4 -8
-13 -5 -20 2 -7 -2 -16 -10 -19 -8 -3 -13 -9 -12 -13 3 -11 -22 -85 -33 -99
-5 -6 -6 -14 -2 -17 3 -4 1 -7 -5 -7 -7 0 -11 -3 -10 -7 2 -9 -41 -106 -51
-113 -8 -6 -34 -63 -31 -69 1 -2 -5 -8 -14 -13 -9 -5 -14 -13 -11 -18 3 -4 -2
-10 -10 -14 -8 -3 -15 -15 -15 -26 0 -12 -4 -19 -9 -16 -5 3 -14 -8 -21 -24
-7 -17 -16 -30 -21 -30 -5 0 -9 -6 -9 -13 0 -7 -8 -20 -17 -28 -22 -20 -63
-68 -63 -74 0 -3 -16 -21 -35 -41 -19 -19 -35 -41 -35 -47 0 -5 -2 -8 -5 -5
-3 2 -42 -32 -89 -76 -99 -96 -123 -116 -137 -116 -5 0 -7 -4 -4 -10 3 -5 0
-10 -9 -10 -8 0 -16 -4 -18 -8 -6 -15 -126 -101 -132 -95 -3 4 -6 2 -6 -4 0
-6 -24 -26 -52 -44 -29 -19 -54 -37 -56 -41 -2 -5 -10 -8 -18 -8 -8 0 -14 -5
-14 -11 0 -5 -4 -8 -9 -4 -5 3 -12 1 -15 -4 -9 -14 -240 -145 -278 -158 -10
-3 -18 -8 -18 -12 0 -4 -10 -7 -22 -8 -11 -1 -24 -6 -27 -11 -5 -7 -31 -21
-51 -27 -3 -1 -23 -10 -45 -20 -22 -10 -42 -19 -45 -20 -3 -1 -18 -8 -35 -15
-16 -7 -32 -14 -35 -15 -3 -1 -18 -7 -35 -14 -16 -7 -57 -23 -90 -36 -33 -13
-73 -29 -90 -36 -16 -6 -36 -13 -43 -15 -8 -1 -21 -6 -30 -10 -9 -4 -23 -9
-29 -11 -7 -1 -19 -5 -25 -6 -7 -2 -20 -7 -28 -10 -33 -14 -207 -69 -229 -73
-14 -3 -28 -7 -33 -10 -4 -3 -16 -7 -25 -9 -10 -2 -48 -13 -85 -24 -37 -11
-69 -16 -71 -13 -13 24 -16 42 -5 36 7 -4 8 -3 4 4 -10 17 -13 92 -3 92 4 0 5
6 0 13 -11 17 -11 30 0 45 6 7 6 12 -1 12 -12 0 -11 69 2 89 7 10 6 12 -4 6
-10 -6 -12 -4 -7 8 4 10 1 17 -6 18 -9 0 -9 2 1 6 6 2 9 10 5 16 -11 18 -10
57 2 57 5 0 3 5 -5 10 -11 7 -11 10 -2 10 8 0 10 5 5 13 -12 19 -10 1237 2
1237 7 0 7 3 0 8 -12 9 -16 42 -5 42 5 0 5 14 0 30 -5 17 -5 30 0 30 11 0 7
33 -5 42 -7 5 -6 8 0 8 7 0 10 20 9 48 -1 27 3 50 9 54 7 5 8 8 2 8 -12 0 -12
90 -1 108 4 7 3 12 -1 12 -8 0 -8 35 0 98 3 19 0 32 -7 32 -8 0 -8 2 0 8 6 4
11 26 10 50 -1 23 3 42 9 42 5 0 3 5 -5 10 -13 9 -13 10 0 10 13 0 13 1 0 10
-13 9 -13 11 0 20 13 9 13 10 0 10 -10 0 -11 3 -4 8 6 4 10 36 9 75 0 37 2 67
6 67 4 0 4 13 -1 30 -5 16 -5 32 -1 34 4 3 9 34 10 68 4 97 6 112 15 127 6 10
5 12 -2 7 -16 -9 -15 7 0 22 9 9 9 12 -1 12 -11 0 -11 3 0 17 12 15 12 16 -1
8 -12 -7 -13 -6 -4 6 10 13 17 75 17 141 -1 15 2 26 6 24 3 -2 6 21 5 52 0 32
3 65 8 75 6 12 5 17 -4 17 -8 0 -9 3 -3 8 6 4 10 16 9 27 0 11 4 26 9 33 6 8
5 12 -2 12 -7 0 -9 5 -6 10 4 6 8 31 9 55 1 24 4 46 7 49 5 5 26 9 103 21 21
4 48 9 60 11 72 15 261 35 358 38 31 1 60 5 64 9 4 4 10 4 13 0 3 -5 31 -8 61
-8z"/>
</g>
</svg>
