<svg viewBox="0 0 232.8511 89.6741" width="5000px" height="1925.5674755064342px" xmlns="http://www.w3.org/2000/svg" xmlns:xlink="http://www.w3.org/1999/xlink" preserveAspectRatio="none"><defs></defs><style>.a6izo4zJpcolorN80YzbAgL {fill:#CCADA4;fill-opacity:1;}.aD6z1nYkhcolorN80YzbAgL {fill:#CCADA4;fill-opacity:1;}.aEgCplTnV-colors-0N80YzbAgL {fill:#776464;fill-opacity:1;}.aNFkEeGMEccolors-0N80YzbAgL {fill:#CCADA4;fill-opacity:0.33;}</style><g opacity="1" transform="rotate(0 120.4256 38.54140000000001)">
        <svg width="71.2341" height="17.78" x="120.4256" y="38.54140000000001" version="1.1" preserveAspectRatio="none" viewBox="4.16 -31 156.12 38.96">
          <g transform="matrix(1 0 0 1 0 0)" class="a6izo4zJpcolorN80YzbAgL"><path transform="" stroke="none" d="M17.04-15Q19.52-14.04 20.96-12.26Q22.40-10.48 22.40-8.12L22.40-8.12Q22.40-5.36 21.06-3.54Q19.72-1.72 17.54-0.86Q15.36 0 12.76 0L12.76 0L4.16 0L4.16-28.92L11.64-28.92Q16.08-28.92 18.52-27.10Q20.96-25.28 20.96-21.64L20.96-21.64Q20.96-19.36 19.94-17.66Q18.92-15.96 17.04-15L17.04-15ZM8.04-25.20L8.04-16.28L12.44-16.28Q14.68-16.28 15.82-17.56Q16.96-18.84 16.96-20.84L16.96-20.84Q16.96-23.04 15.60-24.12Q14.24-25.20 11.80-25.20L11.80-25.20L8.04-25.20ZM12.60-3.60Q15.12-3.60 16.76-4.74Q18.40-5.88 18.40-8.08L18.40-8.08Q18.40-10.36 16.62-11.44Q14.84-12.52 12.32-12.52L12.32-12.52L8.04-12.52L8.04-3.60L12.60-3.60Z"></path>
    <path transform="" stroke="none" d="M44.32-16.56L47.76-16.56L37.08 7.96L33.40 7.96L37.20-0.56L29.52-16.56L33.72-16.56L39.08-4.76L44.32-16.56Z"></path>
    <path transform="" stroke="none" d=""></path>
    <path transform="" stroke="none" d="M96.24-28.92L96.24 0L92.36 0L92.36-12.68L77.20-12.68L77.20 0L73.32 0L73.32-28.92L77.20-28.92L77.20-16.40L92.36-16.40L92.36-28.92L96.24-28.92Z"></path>
    <path transform="" stroke="none" d="M107.64-16.56L111.36-16.56L111.36 0L107.64 0L107.64-16.56ZM107.36-22.52Q107.36-23.40 108.04-24Q108.72-24.60 109.60-24.60L109.60-24.60Q110.48-24.60 111.14-24Q111.80-23.40 111.80-22.52L111.80-22.52Q111.80-21.64 111.14-21.04Q110.48-20.44 109.60-20.44L109.60-20.44Q108.72-20.44 108.04-21.04Q107.36-21.64 107.36-22.52L107.36-22.52Z"></path>
    <path transform="" stroke="none" d="M121.84-31L125.56-31L125.56 0L121.84 0L121.84-31Z"></path>
    <path transform="" stroke="none" d="M149.60-16.56L153.04-16.56L153.04 0L149.32 0L149.32-2.72Q148.44-1.56 146.76-0.58Q145.08 0.40 142.96 0.40L142.96 0.40Q140.60 0.40 138.70-0.62Q136.80-1.64 135.70-3.60Q134.60-5.56 134.60-8.28L134.60-8.28Q134.60-11 135.74-13.02Q136.88-15.04 138.82-16.14Q140.76-17.24 143.12-17.24L143.12-17.24Q145.24-17.24 146.80-16.32Q148.36-15.40 149.32-13.92L149.32-13.92L149.60-16.56ZM143.96-2.68Q146-2.68 147.46-3.82Q148.92-4.96 149.32-6.92L149.32-6.92L149.32-10.20Q148.84-11.96 147.32-13.06Q145.80-14.16 143.84-14.16L143.84-14.16Q142.36-14.16 141.10-13.44Q139.84-12.72 139.10-11.42Q138.36-10.12 138.36-8.48L138.36-8.48Q138.36-6.88 139.12-5.56Q139.88-4.24 141.16-3.46Q142.44-2.68 143.96-2.68L143.96-2.68Z"></path>
    <path transform="" stroke="none" d=""></path>
    </g>
        </svg>
      </g><g opacity="1" transform="rotate(0 79.23410000000001 9.473899999999986)">
        <svg width="153.617" height="20.6668" x="79.23410000000001" y="9.473899999999986" version="1.1" preserveAspectRatio="none" viewBox="2.36 -30.2 234.88 31.6">
          <g transform="matrix(1 0 0 1 0 0)" class="aD6z1nYkhcolorN80YzbAgL"><path transform="" stroke="none" d="M22.12-17.72L22.12-17.72Q22.12-11.76 17.90-6.74Q13.68-1.72 6.84 0.40L6.84 0.40Q6.24 0.40 4.98 0.28Q3.72 0.16 3.16 0.04L3.16 0.04Q2.72-6.40 2.54-11.14Q2.36-15.88 2.36-20.32L2.36-20.32Q2.36-21.92 2.40-23.66Q2.44-25.40 2.48-26.84L2.48-26.84Q4.48-27.80 6.42-28.24Q8.36-28.68 10.52-28.68L10.52-28.68Q16.20-28.68 19.16-25.86Q22.12-23.04 22.12-17.72ZM7.08-25.32L7.08-25.32Q6.80-21.36 6.70-17.92Q6.60-14.48 6.60-8.80L6.60-8.80Q6.60-7.56 6.62-6.28Q6.64-5 6.68-2.76L6.68-2.76Q12.08-4.88 14.88-8.70Q17.68-12.52 17.68-17.76L17.68-17.76Q17.68-21.64 15.68-23.72Q13.68-25.80 9.92-25.80L9.92-25.80Q9.28-25.80 8.60-25.68Q7.92-25.56 7.08-25.32Z"></path>
    <path transform="" stroke="none" d="M30.20-9.84L30.20-9.84Q30.32-7.64 30.60-5.18Q30.88-2.72 31.32 0.08L31.32 0.08Q30.76 0.28 30.14 0.36Q29.52 0.44 28.88 0.40L28.88 0.40Q28.48 0.40 28.16 0.36Q27.84 0.32 27.48 0.20L27.48 0.20Q26.48-4.84 26.10-10.54Q25.72-16.24 26.04-21.52L26.04-21.52Q26.52-21.68 27.12-21.76Q27.72-21.84 28.44-21.84L28.44-21.84Q28.96-21.84 29.52-21.76Q30.08-21.68 30.72-21.48L30.72-21.48Q30.56-20.40 30.42-19.26Q30.28-18.12 30.20-16.80L30.20-16.80Q31.12-19.64 32.64-21.32Q34.16-23 35.76-23L35.76-23Q37.52-23 38.42-21.66Q39.32-20.32 39.32-17.68L39.32-17.68Q39.32-17.24 39.28-16.72Q39.24-16.20 39.20-15.68L39.20-15.68Q38.60-15.44 37.70-15.36Q36.80-15.28 35.56-15.32L35.56-15.32Q35.64-15.88 35.68-16.36Q35.72-16.84 35.72-17.32L35.72-17.32Q35.72-18.52 35.42-19.14Q35.12-19.76 34.52-19.76L34.52-19.76Q33.24-19.76 32.06-17.06Q30.88-14.36 30.20-9.84Z"></path>
    <path transform="" stroke="none" d="M45.60-12.84L45.60-12.84Q46.60-12.48 47.76-12.30Q48.92-12.12 50.08-12.12L50.08-12.12Q50.44-12.12 50.96-12.18Q51.48-12.24 51.72-12.28L51.72-12.28Q52.00-13.36 52.14-14.30Q52.28-15.24 52.28-16.04L52.28-16.04Q52.28-17.60 51.78-18.26Q51.28-18.92 50.20-18.92L50.20-18.92Q48.76-18.92 47.52-17.24Q46.28-15.56 45.60-12.84ZM53.56-7L53.56-7Q54.40-6.84 55.28-6.38Q56.16-5.92 56.76-5.28L56.76-5.28Q56.04-3.04 53.58-1.26Q51.12 0.52 48.28 0.52L48.28 0.52Q44.80 0.52 42.84-1.96Q40.88-4.44 40.88-8.68L40.88-8.68Q40.88-13.64 43.74-17.58Q46.60-21.52 50.52-21.52L50.52-21.52Q53.12-21.52 54.64-19.96Q56.16-18.40 56.16-15.80L56.16-15.80Q56.16-14.44 55.90-13Q55.64-11.56 55.20-10.44L55.20-10.44Q54.28-10.08 52.98-9.90Q51.68-9.72 49.84-9.72L49.84-9.72Q48.72-9.72 47.52-9.90Q46.32-10.08 45.16-10.44L45.16-10.44Q45.12-9.64 45.10-9.32Q45.08-9 45.08-8.72L45.08-8.72Q45.08-5.76 46.08-3.96Q47.08-2.16 48.76-2.16L48.76-2.16Q50.12-2.16 51.56-3.62Q53.00-5.08 53.56-7Z"></path>
    <path transform="" stroke="none" d="M75.84-13.80L75.84-13.80Q75.84-11.12 75.12-6.70Q74.40-2.28 73.40 1.40L73.40 1.40Q72.60 1.40 71.72 1.26Q70.84 1.12 70.00 0.88L70.00 0.88Q70.12 0.20 70.24-0.36Q70.36-0.92 70.48-1.36L70.48-1.36Q69.60-0.80 68.56-0.52Q67.52-0.24 66.36-0.24L66.36-0.24Q63.48-0.24 61.72-1.74Q59.96-3.24 59.96-5.76L59.96-5.76Q59.96-8.44 62.20-9.80Q64.44-11.16 68.80-11.16L68.80-11.16Q69.52-11.16 70.14-11.14Q70.76-11.12 71.68-11.08L71.68-11.08Q71.68-11.52 71.68-11.94Q71.68-12.36 71.68-12.76L71.68-12.76Q71.68-16.12 70.96-17.60Q70.24-19.08 68.64-19.08L68.64-19.08Q67.00-19.08 65.90-17.56Q64.80-16.04 64.72-13.64L64.72-13.64Q63.28-13.76 62.36-14.28Q61.44-14.80 61.00-15.68L61.00-15.68Q61.52-18.20 63.82-19.96Q66.12-21.72 69.08-21.72L69.08-21.72Q72.44-21.72 74.14-19.72Q75.84-17.72 75.84-13.80ZM64.24-5.56L64.24-5.56Q64.24-4.24 65.08-3.44Q65.92-2.64 67.36-2.64L67.36-2.64Q68.36-2.64 69.26-2.94Q70.16-3.24 70.92-3.80L70.92-3.80Q71.20-5.28 71.36-6.52Q71.52-7.76 71.56-9.04L71.56-9.04Q67.88-9.16 66.06-8.30Q64.24-7.44 64.24-5.56Z"></path>
    <path transform="" stroke="none" d="M106.28-15.12L106.28-15.12Q106.28-11.48 105.58-6.82Q104.88-2.16 103.96 1.08L103.96 1.08Q102.76 1.04 101.72 0.88Q100.68 0.72 99.84 0.48L99.84 0.48Q100.96-4 101.52-7.94Q102.08-11.88 102.08-15.16L102.08-15.16Q102.08-17.36 101.56-18.34Q101.04-19.32 99.88-19.32L99.88-19.32Q98.76-19.32 97.64-18.08Q96.52-16.84 95.64-14.60L95.64-14.60Q95.68-14.36 95.68-14.04Q95.68-13.72 95.68-13.04L95.68-13.04Q95.68-10.16 95.20-6.48Q94.72-2.80 94.12-0.44L94.12-0.44Q93.36-0.44 92.38-0.58Q91.40-0.72 90.20-1L90.20-1Q90.96-5.12 91.28-7.92Q91.60-10.72 91.60-12.92L91.60-12.92Q91.60-15.12 91.08-16.10Q90.56-17.08 89.40-17.08L89.40-17.08Q88.16-17.08 86.96-15.90Q85.76-14.72 84.96-12.64L84.96-12.64Q84.92-9.64 84.90-8.34Q84.88-7.04 84.88-6.04L84.88-6.04Q84.88-4.20 84.94-2.38Q85.00-0.56 85.08 0.36L85.08 0.36Q84.44 0.56 83.42 0.72Q82.40 0.88 81.52 0.88L81.52 0.88Q81.12-4.16 80.82-10.54Q80.52-16.92 80.52-21.08L80.52-21.08Q81.08-21.36 81.90-21.52Q82.72-21.68 83.56-21.68L83.56-21.68Q84.12-21.68 84.56-21.64Q85.00-21.60 85.48-21.48L85.48-21.48Q85.36-20.56 85.28-19.34Q85.20-18.12 85.12-16.64L85.12-16.64Q86.32-18.56 87.84-19.54Q89.36-20.52 91.08-20.52L91.08-20.52Q92.52-20.52 93.48-19.86Q94.44-19.20 94.96-17.88L94.96-17.88Q96.32-20.32 97.98-21.54Q99.64-22.76 101.60-22.76L101.60-22.76Q104.00-22.76 105.14-20.90Q106.28-19.04 106.28-15.12Z"></path>
    <path transform="" stroke="none" d="M126.00-14.76L126.00-14.76Q125.20-14.36 124.22-14.18Q123.24-14 122.04-14L122.04-14Q122.04-16.60 121.40-17.86Q120.76-19.12 119.44-19.12L119.44-19.12Q117.48-19.12 116.06-15.80Q114.64-12.48 114.64-8.20L114.64-8.20Q114.64-5.16 115.62-3.42Q116.60-1.68 118.36-1.68L118.36-1.68Q119.76-1.68 121.06-2.90Q122.36-4.12 123.36-6.32L123.36-6.32Q124.08-6.16 124.72-5.72Q125.36-5.28 125.80-4.68L125.80-4.68Q125.16-2.36 122.86-0.68Q120.56 1 117.64 1L117.64 1Q114.16 1 112.28-1.38Q110.40-3.76 110.40-7.96L110.40-7.96Q110.40-13.76 113.00-17.70Q115.60-21.64 119.60-21.64L119.60-21.64Q122.64-21.64 124.32-19.80Q126.00-17.96 126.00-14.76Z"></path>
    <path transform="" stroke="none" d="M144.96-13.80L144.96-13.80Q144.96-11.12 144.24-6.70Q143.52-2.28 142.52 1.40L142.52 1.40Q141.72 1.40 140.84 1.26Q139.96 1.12 139.12 0.88L139.12 0.88Q139.24 0.20 139.36-0.36Q139.48-0.92 139.60-1.36L139.60-1.36Q138.72-0.80 137.68-0.52Q136.64-0.24 135.48-0.24L135.48-0.24Q132.60-0.24 130.84-1.74Q129.08-3.24 129.08-5.76L129.08-5.76Q129.08-8.44 131.32-9.80Q133.56-11.16 137.92-11.16L137.92-11.16Q138.64-11.16 139.26-11.14Q139.88-11.12 140.80-11.08L140.80-11.08Q140.80-11.52 140.80-11.94Q140.80-12.36 140.80-12.76L140.80-12.76Q140.80-16.12 140.08-17.60Q139.36-19.08 137.76-19.08L137.76-19.08Q136.12-19.08 135.02-17.56Q133.92-16.04 133.84-13.64L133.84-13.64Q132.40-13.76 131.48-14.28Q130.56-14.80 130.12-15.68L130.12-15.68Q130.64-18.20 132.94-19.96Q135.24-21.72 138.20-21.72L138.20-21.72Q141.56-21.72 143.26-19.72Q144.96-17.72 144.96-13.80ZM133.36-5.56L133.36-5.56Q133.36-4.24 134.20-3.44Q135.04-2.64 136.48-2.64L136.48-2.64Q137.48-2.64 138.38-2.94Q139.28-3.24 140.04-3.80L140.04-3.80Q140.32-5.28 140.48-6.52Q140.64-7.76 140.68-9.04L140.68-9.04Q137.00-9.16 135.18-8.30Q133.36-7.44 133.36-5.56Z"></path>
    <path transform="" stroke="none" d="M158.32-8.52L158.32-8.52Q159.12-8.44 159.90-8.14Q160.68-7.84 161.32-7.44L161.32-7.44Q161.24-4.16 159.88-2.26Q158.52-0.36 156.08-0.36L156.08-0.36Q153.24-0.36 151.72-3.26Q150.20-6.16 150.20-11.64L150.20-11.64Q150.20-13.48 150.30-15.22Q150.40-16.96 150.60-18.60L150.60-18.60Q149.64-18.76 148.94-18.88Q148.24-19 147.68-19.12L147.68-19.12Q147.68-19.80 147.84-20.50Q148.00-21.20 148.24-21.68L148.24-21.68Q148.84-21.52 149.52-21.40Q150.20-21.28 150.96-21.20L150.96-21.20Q151.16-22.52 151.44-23.84Q151.72-25.16 152.04-26.44L152.04-26.44Q153.44-26.36 154.56-26.20Q155.68-26.04 156.48-25.76L156.48-25.76Q156.16-24.80 155.86-23.56Q155.56-22.32 155.28-20.88L155.28-20.88Q156.84-20.84 158.38-20.90Q159.92-20.96 161.36-21.12L161.36-21.12Q161.36-20.56 161.24-19.90Q161.12-19.24 160.88-18.60L160.88-18.60Q159.44-18.44 157.90-18.36Q156.36-18.28 154.88-18.32L154.88-18.32Q154.60-16.48 154.46-14.64Q154.32-12.80 154.32-11.08L154.32-11.08Q154.32-7.12 154.84-5.10Q155.36-3.08 156.40-3.08L156.40-3.08Q157.32-3.08 157.80-4.42Q158.28-5.76 158.32-8.52Z"></path>
    <path transform="" stroke="none" d="M180.20-14.76L180.20-14.76Q179.40-14.36 178.42-14.18Q177.44-14 176.24-14L176.24-14Q176.24-16.60 175.60-17.86Q174.96-19.12 173.64-19.12L173.64-19.12Q171.68-19.12 170.26-15.80Q168.84-12.48 168.84-8.20L168.84-8.20Q168.84-5.16 169.82-3.42Q170.80-1.68 172.56-1.68L172.56-1.68Q173.96-1.68 175.26-2.90Q176.56-4.12 177.56-6.32L177.56-6.32Q178.28-6.16 178.92-5.72Q179.56-5.28 180.00-4.68L180.00-4.68Q179.36-2.36 177.06-0.68Q174.76 1 171.84 1L171.84 1Q168.36 1 166.48-1.38Q164.60-3.76 164.60-7.96L164.60-7.96Q164.60-13.76 167.20-17.70Q169.80-21.64 173.80-21.64L173.80-21.64Q176.84-21.64 178.52-19.80Q180.20-17.96 180.20-14.76Z"></path>
    <path transform="" stroke="none" d="M200.12-13.20L200.12-13.20Q200.12-9.96 199.14-5.56Q198.16-1.16 197.08 1.28L197.08 1.28Q196.16 1.24 195.26 0.98Q194.36 0.72 193.44 0.32L193.44 0.32Q194.60-2.96 195.26-6.52Q195.92-10.08 195.92-13.16L195.92-13.16Q195.92-15.96 195.38-17.04Q194.84-18.12 193.48-18.12L193.48-18.12Q192.16-18.12 190.78-16.64Q189.40-15.16 188.48-12.64L188.48-12.64Q188.44-12.24 188.44-11.82Q188.44-11.40 188.44-10.52L188.44-10.52Q188.44-8.68 188.60-5.92Q188.76-3.16 188.92-1.48L188.92-1.48Q188.36-1.32 187.24-1.20Q186.12-1.08 185.12-1.08L185.12-1.08Q184.80-5.16 184.64-9.18Q184.48-13.20 184.48-16.76L184.48-16.76Q184.48-20.04 184.68-23.82Q184.88-27.60 185.16-29.52L185.16-29.52Q185.72-29.84 186.56-30.02Q187.40-30.20 188.28-30.20L188.28-30.20Q188.56-30.20 189.04-30.12Q189.52-30.04 190.24-29.88L190.24-29.88Q189.68-27.20 189.26-23.92Q188.84-20.64 188.64-17.08L188.64-17.08Q189.80-19.04 191.34-20.12Q192.88-21.20 194.56-21.20L194.56-21.20Q197.48-21.20 198.80-19.28Q200.12-17.36 200.12-13.20Z"></path>
    <path transform="" stroke="none" d="M208.84-12.84L208.84-12.84Q209.84-12.48 211-12.30Q212.16-12.12 213.32-12.12L213.32-12.12Q213.68-12.12 214.20-12.18Q214.72-12.24 214.96-12.28L214.96-12.28Q215.24-13.36 215.38-14.30Q215.52-15.24 215.52-16.04L215.52-16.04Q215.52-17.60 215.02-18.26Q214.52-18.92 213.44-18.92L213.44-18.92Q212-18.92 210.76-17.24Q209.52-15.56 208.84-12.84ZM216.80-7L216.80-7Q217.64-6.84 218.52-6.38Q219.40-5.92 220-5.28L220-5.28Q219.28-3.04 216.82-1.26Q214.36 0.52 211.52 0.52L211.52 0.52Q208.04 0.52 206.08-1.96Q204.12-4.44 204.12-8.68L204.12-8.68Q204.12-13.64 206.98-17.58Q209.84-21.52 213.76-21.52L213.76-21.52Q216.36-21.52 217.88-19.96Q219.40-18.40 219.40-15.80L219.40-15.80Q219.40-14.44 219.14-13Q218.88-11.56 218.44-10.44L218.44-10.44Q217.52-10.08 216.22-9.90Q214.92-9.72 213.08-9.72L213.08-9.72Q211.96-9.72 210.76-9.90Q209.56-10.08 208.40-10.44L208.40-10.44Q208.36-9.64 208.34-9.32Q208.32-9 208.32-8.72L208.32-8.72Q208.32-5.76 209.32-3.96Q210.32-2.16 212-2.16L212-2.16Q213.36-2.16 214.80-3.62Q216.24-5.08 216.80-7Z"></path>
    <path transform="" stroke="none" d="M228.12-9.84L228.12-9.84Q228.24-7.64 228.52-5.18Q228.80-2.72 229.24 0.08L229.24 0.08Q228.68 0.28 228.06 0.36Q227.44 0.44 226.80 0.40L226.80 0.40Q226.40 0.40 226.08 0.36Q225.76 0.32 225.40 0.20L225.40 0.20Q224.40-4.84 224.02-10.54Q223.64-16.24 223.96-21.52L223.96-21.52Q224.44-21.68 225.04-21.76Q225.64-21.84 226.36-21.84L226.36-21.84Q226.88-21.84 227.44-21.76Q228-21.68 228.64-21.48L228.64-21.48Q228.48-20.40 228.34-19.26Q228.20-18.12 228.12-16.80L228.12-16.80Q229.04-19.64 230.56-21.32Q232.08-23 233.68-23L233.68-23Q235.44-23 236.34-21.66Q237.24-20.32 237.24-17.68L237.24-17.68Q237.24-17.24 237.20-16.72Q237.16-16.20 237.12-15.68L237.12-15.68Q236.52-15.44 235.62-15.36Q234.72-15.28 233.48-15.32L233.48-15.32Q233.56-15.88 233.60-16.36Q233.64-16.84 233.64-17.32L233.64-17.32Q233.64-18.52 233.34-19.14Q233.04-19.76 232.44-19.76L232.44-19.76Q231.16-19.76 229.98-17.06Q228.80-14.36 228.12-9.84Z"></path>
    </g>
        </svg>
      </g><g opacity="1" transform="rotate(0 0 0)">
        <svg width="71.2341" height="78.0091" x="0" y="0" version="1.1" preserveAspectRatio="none" viewBox="26.947847366333008 20.000185012817383 146.1042022705078 160.00010681152344">
          <g transform="matrix(1 0 0 1 0 0)"><g><path d="M96.081 178.489c21.674-3.687 44.54-9.895 58.899-26.539 14.704-17.045 17.257-41.194 17.954-63.713.266-8.195.333-16.63-2.629-24.266-2.961-7.636-8.035-14.683-15.772-18.194-12.127-5.504-30.47-16.117-48.978-21.934-8.326-2.64-17.067-4.778-25.66-3.424C69.807 22.02 61 28.283 53.838 35.555c-16.976 17.178-26.845 41.177-26.89 65.333s9.702 48.196 26.57 65.472c5.3 5.437 11.49 10.313 18.775 12.394 7.69 2.189 15.906 1.1 23.788-.265z" data-color="1" class="aNFkEeGMEccolors-0N80YzbAgL"></path></g></g>
        </svg>
      </g><g opacity="1" transform="rotate(0 15.483100000000007 5.188600000000008)">
        <svg width="40.2679" height="84.4855" x="15.483100000000007" y="5.188600000000008" version="1.1" preserveAspectRatio="none" viewBox="0.33982858061790466 0.7098998427391052 39.15017318725586 82.14042663574219">
          <g transform="matrix(1 0 0 1 0 0)" class="aEgCplTnV-colors-0N80YzbAgL"><title>dreamcatcher</title><path d="M26.83,44.79a1.64,1.64,0,0,0,.23.49C26.94,45,26.85,44.86,26.83,44.79Z"></path><path d="M6.88,44.92a4.75,4.75,0,0,1-.92.21s0,0,0,0A3.68,3.68,0,0,0,6.86,45,0.08,0.08,0,0,0,6.88,44.92Z"></path><path d="M17.83,44.91l0.08-.09A1,1,0,0,0,16,45l0.09,0.08A0.9,0.9,0,0,1,17.83,44.91Z"></path><path d="M8.47,39.31l0.06-.1-0.18,0A1.4,1.4,0,0,0,6.94,40.6a1.42,1.42,0,0,0,.11.54L7.13,41a1.25,1.25,0,0,1-.08-0.44,1.3,1.3,0,0,1,1.3-1.3H8.47Z"></path><path d="M8.59,39.33l0.06-.1-0.12,0-0.06.1Z"></path><path d="M8.73,41.95l0.13,0a0.65,0.65,0,0,0,0-.13l-0.12,0Z"></path><path d="M7.31,41.63a0.55,0.55,0,0,0,.21.54,0,0,0,0,0,0,0,0.49,0.49,0,0,1-.19-0.49S7.32,41.59,7.31,41.63Z"></path><path d="M16.36,45.15a0.48,0.48,0,0,0,.18.6s0.06,0,0-.05a0.43,0.43,0,0,1-.17-0.53A0,0,0,1,0,16.36,45.15Z"></path><path d="M26.39,43.57s0.05,0,0-.05A0.62,0.62,0,0,1,25.94,43s-0.06,0-.05,0A0.65,0.65,0,0,0,26.39,43.57Z"></path><path d="M25.61,35.44a6.07,6.07,0,0,1,.71,1.87s0.06,0,.05,0a6.13,6.13,0,0,0-.72-1.88S25.6,35.41,25.61,35.44Z"></path><path d="M16,36.46a0.61,0.61,0,0,0-.17.44,6.53,6.53,0,0,0,0,.9s0.06,0,.05,0c0-.23,0-0.45,0-0.67a0.78,0.78,0,0,1,.16-0.64S16.06,36.45,16,36.46Z"></path><path d="M10,37.32a4.74,4.74,0,0,0,.22-2.44s-0.06,0-.05,0A4.8,4.8,0,0,1,10,37.3S10,37.35,10,37.32Z"></path><path d="M14.87,34.29a0,0,0,0,0-.05,0,2,2,0,0,0,.11.71S15,35,15,35A1.92,1.92,0,0,1,14.87,34.29Z"></path><path d="M18.31,34.64s-0.06,0-.05,0a2.76,2.76,0,0,0,.11.44s0.07,0,.05,0A2.07,2.07,0,0,1,18.31,34.64Z"></path><path d="M21.71,34.06s-0.07,0-.05,0a6.22,6.22,0,0,0,.41.63s0.06,0,0,0A5.13,5.13,0,0,1,21.71,34.06Z"></path><path d="M25.31,33.32a1.6,1.6,0,0,1-.5-0.5s-0.07,0-.05,0a1.67,1.67,0,0,0,.53.53S25.34,33.34,25.31,33.32Z"></path><path d="M28.45,31.51a2.76,2.76,0,0,1-.56-0.43,0,0,0,0,0,0,0,2.9,2.9,0,0,0,.58.44A0,0,0,0,0,28.45,31.51Z"></path><path d="M30.89,29.07a6.11,6.11,0,0,0-.57-0.3,0,0,0,1,0,0,.05,5.3,5.3,0,0,1,.57.3S30.92,29.09,30.89,29.07Z"></path><path d="M33,26c-0.19-.07-0.41,0-0.6-0.07,0,0-.05,0,0,0.05,0.19,0.07.41,0,.6,0.07C33,26.05,33,26,33,26Z"></path><path d="M33.5,22.89h0.79a0,0,0,0,0,0-.05H33.5A0,0,0,0,0,33.5,22.89Z"></path><path d="M34.1,19.5a1.94,1.94,0,0,1,.73-0.13,0,0,0,0,0,0-.05,2,2,0,0,0-.74.13S34.07,19.52,34.1,19.5Z"></path><path d="M34,16a2,2,0,0,1,.49-0.24s0-.06,0-0.05A1.72,1.72,0,0,0,34,16,0,0,0,1,0,34,16Z"></path><path d="M33.28,12.77a1.06,1.06,0,0,1,.54-0.34s0-.06,0-0.05a1.12,1.12,0,0,0-.55.36S33.26,12.8,33.28,12.77Z"></path><path d="M31.77,9.65a1.21,1.21,0,0,1,.45-0.54,0,0,0,0,0,0,0,1.17,1.17,0,0,0-.47.58A0,0,0,0,0,31.77,9.65Z"></path><path d="M29.75,6.94a3.41,3.41,0,0,0,.39-0.64s0-.05-0.05,0a3,3,0,0,1-.38.63S29.73,7,29.75,6.94Z"></path><path d="M27.15,4.72a2.72,2.72,0,0,0,.26-0.65s0-.05-0.05,0a2.24,2.24,0,0,1-.25.64S27.14,4.74,27.15,4.72Z"></path><path d="M24.22,3.09a4.14,4.14,0,0,1,0-.64,0,0,0,0,0-.05,0,4.36,4.36,0,0,0,0,.66S24.22,3.13,24.22,3.09Z"></path><path d="M20.8,2.28s0.06,0,.05,0a1.86,1.86,0,0,0-.15-0.84s-0.06,0,0,0A1.87,1.87,0,0,1,20.8,2.28Z"></path><path d="M17.52,1.83a1.38,1.38,0,0,1-.28-0.67,0,0,0,0,0-.05,0,1.4,1.4,0,0,0,.28.7S17.54,1.86,17.52,1.83Z"></path><path d="M13.93,2.46s0.07,0,.05,0c-0.1-.24-0.38-0.38-0.46-0.63a0,0,0,0,0,0-.05h0a0,0,0,0,0,0,0A6.81,6.81,0,0,0,13.93,2.46Z"></path><path d="M10.35,3.1a2,2,0,0,1,.42.43,0,0,0,0,0,0,0,1.76,1.76,0,0,0-.43-0.44S10.31,3.09,10.35,3.1Z"></path><path d="M7.73,5.35a0,0,0,0,0,0,0C7.62,5.16,7.48,5,7.33,4.84s-0.06,0,0,0A5.88,5.88,0,0,0,7.73,5.35Z"></path><path d="M4.67,7.39a2.91,2.91,0,0,1,.69.27s0.05,0,0-.05a2.82,2.82,0,0,0-.71-0.27S4.64,7.38,4.67,7.39Z"></path><path d="M2.66,10.33c0.28,0,.55.14,0.83,0.2,0,0,.05,0,0-0.05-0.28-.06-0.55-0.17-0.85-0.2C2.62,10.27,2.62,10.32,2.66,10.33Z"></path><path d="M2.18,13.64c-0.25,0-.5-0.08-0.76-0.08a0,0,0,0,0,0,.05c0.26,0,.5.08,0.76,0.08C2.21,13.7,2.21,13.64,2.18,13.64Z"></path><path d="M1.74,16.89c-0.31,0-.57.22-0.88,0.22a0,0,0,0,0,0,.05c0.31,0,.57-0.2.88-0.22C1.77,16.95,1.77,16.89,1.74,16.89Z"></path><path d="M1.69,20.53a2,2,0,0,1-.64.21,0,0,0,0,0,0,.05,1.92,1.92,0,0,0,.66-0.22S1.72,20.52,1.69,20.53Z"></path><path d="M2.51,23.83a4.62,4.62,0,0,0-.5.38,0,0,0,1,0,.05,0,3.74,3.74,0,0,1,.5-0.38S2.53,23.79,2.51,23.83Z"></path><path d="M3.9,26.76c-0.18.13-.24,0.36-0.41,0.49s0,0.06,0,0,0.23-.36.4-0.49C4,26.79,3.93,26.75,3.9,26.76Z"></path><path d="M5.92,29.43a1.18,1.18,0,0,0-.26.72s0.06,0,.05,0A1.2,1.2,0,0,1,6,29.46,0,0,0,1,0,5.92,29.43Z"></path><path d="M8.66,31.66a3.25,3.25,0,0,0-.18.74s0.06,0,.05,0a3.69,3.69,0,0,1,.18-0.73S8.66,31.63,8.66,31.66Z"></path><path d="M11.66,33.29c0,0.24-.09.48-0.09,0.72a0,0,0,0,0,.05,0c0-.24.09-0.48,0.09-0.72C11.71,33.25,11.66,33.25,11.66,33.29Z"></path><path d="M16,43.5a1,1,0,0,0,.14,1.08,0,0,0,0,0,0,0,0.94,0.94,0,0,1-.13-1S16,43.48,16,43.5Z"></path><path d="M25.69,40.92a1,1,0,0,0,0,1.26s0.06,0,0,0a1,1,0,0,1,0-1.19S25.71,40.88,25.69,40.92Z"></path><path d="M8.11,39.67s0-.06,0-0.05a0.77,0.77,0,0,0-.74.88s0.06,0,.05,0A0.72,0.72,0,0,1,8.11,39.67Z"></path><path d="M10.79,46.77a0,0,0,0,0,0,0A3.73,3.73,0,0,0,10,44.1l0.05,0.06a0,0,0,0,0,0,0,1.62,1.62,0,0,0-.33-0.38c-0.37-.47-0.8-0.9-1.2-1.35a1,1,0,0,0,.28-0.51L8.73,42A0.9,0.9,0,0,1,7,41.71a0.84,0.84,0,0,1,.13-0.45l0.07-.1h0a0.89,0.89,0,0,1,1.6.55,0.63,0.63,0,0,1,0,.13l0.12,0V41.72a1,1,0,0,0-1-1,1,1,0,0,0-.74.33h0a0.79,0.79,0,0,0-.08.1,1,1,0,0,0-.18.57,1,1,0,0,0,.19.59,0.77,0.77,0,0,0-.27.08,0.94,0.94,0,0,0-.49.52v0a0.06,0.06,0,0,1,0,0s0,0,0,0a0.67,0.67,0,0,1,.18-0.1h0l0.09,0a0.06,0.06,0,0,1,0,.08h0a1.25,1.25,0,0,0-.77.46s0,0,0,0a1.84,1.84,0,0,1,.54-0.37A2.3,2.3,0,0,1,7,43a0.62,0.62,0,0,0,.59-0.32h0c0,0.12,0,.23,0,0.35a0.72,0.72,0,0,1-.66.3c-0.22,0-.43,0-0.64,0a1.09,1.09,0,0,0-.81.45l-0.07.09A0.45,0.45,0,0,0,5.4,44a1.61,1.61,0,0,0-.74.86,0.87,0.87,0,0,0,0,.08l-0.06.14-0.16.14a1,1,0,0,0-.25.82,0.82,0.82,0,0,0-.29.67h0a1,1,0,0,0-.31.89l0,0a0.07,0.07,0,0,0,0,0,0.77,0.77,0,0,1,0,.13,1.2,1.2,0,0,0-.08.9,1.05,1.05,0,0,0,0,.87,0.56,0.56,0,0,0,.08.59l0,0a0.24,0.24,0,0,0,.05.08,0.73,0.73,0,0,0,.09.64,0.06,0.06,0,0,0,0,0,0.91,0.91,0,0,0,0,.37,1.06,1.06,0,0,1,0,.6,0,0,0,0,0,.05,0,0.4,0.4,0,0,0,.06-0.1c0.13-.12.23-0.25,0.35-0.38A1.55,1.55,0,0,1,5,51.1l0.19,0A1.62,1.62,0,0,0,5,51.9H5a1.1,1.1,0,0,0,0,.37,1.14,1.14,0,0,0-.07.64,0.41,0.41,0,0,0,0,.09s0,0,0,0l0,0H5A0,0,0,0,0,5,53a1.24,1.24,0,0,0-.13.72s0,0,0,0a3.23,3.23,0,0,0,.09.57,3.26,3.26,0,0,0,.18.68,2.07,2.07,0,0,0,.1.49s0,0,0,0a0.71,0.71,0,0,0,0,.18,1.48,1.48,0,0,0,.15.92l0,0a1,1,0,0,0,.23.41,1.13,1.13,0,0,0,.23.69,0,0,0,0,0,0,0,0.2,0.2,0,0,1,0,.08,0.78,0.78,0,0,0,.15.22,1.34,1.34,0,0,0,.15.5,1.47,1.47,0,0,0,.18.34,1.78,1.78,0,0,0,.82.53,0,0,0,0,0,0,0,2.28,2.28,0,0,0,.32.24L8,59.76l0.08,0.05h0L8.31,60a0.68,0.68,0,0,0,.17.18,0,0,0,0,0,0,0C8.45,60,8.34,59.86,8.27,59.73a4.7,4.7,0,0,1-.21-0.47h0a3.44,3.44,0,0,1-.38-1.58,0.14,0.14,0,0,0,0-.06s0,0,0,0,0,0,0,0l0-.19a4.63,4.63,0,0,1,.1-0.59,0,0,0,0,0,0,0,0.19,0.19,0,0,1,0,0c0.06-.23.13-0.48,0.21-0.7a6.08,6.08,0,0,1,.23-0.59s0,0,0,0,0.07,0,.06,0V55.35c0.25-.59.55-1.15,0.85-1.71h0a0,0,0,0,0,0,0,1.79,1.79,0,0,0,.08-0.23c0.14-.26.29-0.53,0.42-0.79l0,0,0.06-.13a10.47,10.47,0,0,0,.76-1.92l0,0a1,1,0,0,0,.09-0.44c0-.1,0-0.2.06-0.3a0.84,0.84,0,0,0,.05-0.26,0.07,0.07,0,0,1,0,0s0,0,0,0,0-.22,0-0.33l0-.23c0-.24,0-0.47.06-0.71h0a5.34,5.34,0,0,0,0-.9,2.81,2.81,0,0,0-.19-0.74,1.7,1.7,0,0,1-.18-0.86h0a0,0,0,0,1,0,0s0,0,0,0a0.82,0.82,0,0,0,.15.31,3.94,3.94,0,0,1,.15.56l0,0s0,0,0,.05S10.78,46.76,10.79,46.77ZM7.11,42.35l0.14,0.14a4.37,4.37,0,0,0-.58,0A1.53,1.53,0,0,1,7.11,42.35Zm-0.72.49,0.13-.18a1.45,1.45,0,0,1,.77-0.15L7.43,42.6a1.1,1.1,0,0,1-.64.14A0.86,0.86,0,0,0,6.39,42.84ZM6.62,43a0.1,0.1,0,0,0,0-.08,0.12,0.12,0,0,0-.07-0.06,2.9,2.9,0,0,1,.58-0.08,0.7,0.7,0,0,0,.33-0.13l0.1,0A1.11,1.11,0,0,1,6.62,43Zm3.17,0.9a4.24,4.24,0,0,1,.75,1.44c-0.11-.16-0.25-0.31-0.36-0.47A2.6,2.6,0,0,0,9.47,44a5.18,5.18,0,0,0-.53-0.33,3,3,0,0,0-.28-0.51l-0.11-.14c0.37,0.28.81,0.48,1.18,0.76ZM8.48,42.5c0.33,0.37.7,0.7,1,1.06a5.32,5.32,0,0,1-1.32-.91A1,1,0,0,0,8.48,42.5ZM8,42.7l0.12,0c0.15,0.64.31,1.29,0.45,1.94a0.87,0.87,0,0,0,0-.08,1.75,1.75,0,0,1,0-.18A15.85,15.85,0,0,0,8,42.85a0.32,0.32,0,0,1,0-.13,0,0,0,0,0,0,0H8Zm0.48,1a0.44,0.44,0,0,0,.08.15s0,0,0,0A1.63,1.63,0,0,1,8.43,43.69Zm0.71,4.08c0-.26-0.07-0.51-0.12-0.77a1.24,1.24,0,0,0,0-.16c0,0.1,0,.2.05,0.3s0.06,0.42.08,0.64A0,0,0,0,0,9.14,47.78Zm0,0.09c0,0.11,0,.23,0,0.33,0-.08,0-0.18,0-0.26A0.11,0.11,0,0,0,9.18,47.87ZM9,46.83l-0.15-.77a1.26,1.26,0,0,0,0-.24c0.08,0.33.16,0.67,0.22,1A0,0,0,0,0,9,46.83Zm-0.06.09S9,47,9,47c-0.2,1.28-1.3,2-2.34,2.65a3.92,3.92,0,0,0-1.3,1.15,2.3,2.3,0,0,0,.08-0.33,1.29,1.29,0,0,0,0-.14A3.58,3.58,0,0,1,7.06,48.9a3.55,3.55,0,0,0,1.61-1.34s0,0,0,0a5.7,5.7,0,0,1-2.11,1.59,3.35,3.35,0,0,0-1,.86s0-.05,0-0.08l0-.08a2.2,2.2,0,0,1,.33-0.51,0,0,0,0,0,0,0,0,0,0,0,0,0,0l0.34-.37c0.43-.41.93-0.74,1.38-1.12a3.12,3.12,0,0,0,1.16-1.56C8.85,46.46,8.91,46.69,8.94,46.93ZM8.79,45.72l0,0C8.72,45.47,8.66,45.23,8.6,45V44.92c0.07,0.29.14,0.58,0.21,0.87A0.1,0.1,0,0,0,8.79,45.72Zm-0.07,0a6.76,6.76,0,0,0-.49,1.13,1,1,0,0,1-.58.64s0,0,0,0a3,3,0,0,0,1-1.78c0,0.11,0,.2.07,0.32C8.82,47,7.6,47.78,7,48.26a7.32,7.32,0,0,0-1,.9c0.22-1.11,1.26-1.85,2-2.69a2.79,2.79,0,0,0,.68-1.35C8.65,45.32,8.68,45.51,8.72,45.69ZM6.17,48.18l0.17-.31v0A3.32,3.32,0,0,0,6.17,48.18Zm0.18-.23s0,0,0,0l-0.08.11v0Zm-0.14.22v0h0v0Zm0.66-2.81c0.08-.23.18-0.44,0.29-0.66C7.43,44.16,8.08,43.62,8,43H8L8.06,43.2A3.26,3.26,0,0,1,7.24,46a7.76,7.76,0,0,0-.66.9,3.2,3.2,0,0,1,.14-1.17,13.57,13.57,0,0,1,.95-1.36A1.23,1.23,0,0,0,8,43.28C8.17,44.13,7.33,44.68,6.87,45.35ZM6.59,47.28s0,0,0,0a0.37,0.37,0,0,1,0-.13,16.93,16.93,0,0,1,1.12-1.62,3.14,3.14,0,0,0,.48-1.87c0.09,0.28.17,0.56,0.24,0.85a0,0,0,0,0,0,0c0.4,0.95-.53,1.9-1.14,2.52C7,47.3,6.72,47.6,6.45,47.92a1.45,1.45,0,0,1,.12-0.71Zm1.28-4.57h0a1.24,1.24,0,0,1,0,.18L8,43H8a1.59,1.59,0,0,1-.54,1.17,3.68,3.68,0,0,0,.35-1.44H7.87Zm-3.7,3.41s0,0,0,0,0,0,0-.05a3.44,3.44,0,0,1,1.87-.69,6.49,6.49,0,0,0,.69-0.11l0-.09-0.37.08c-0.32.06-.64,0.09-1,0.16a2.84,2.84,0,0,0-1.2.52l0,0c0-.11,0-0.22,0-0.33A1,1,0,0,1,4.79,45a2.83,2.83,0,0,1,1.26-.37,4.05,4.05,0,0,0,1-.16l0-.08a11.69,11.69,0,0,1-1.65.28,2.41,2.41,0,0,0-.79.33,0.36,0.36,0,0,1,0,0,0.12,0.12,0,0,1,0-.06h0s0.06-.1.08-0.13a5.65,5.65,0,0,1,.49-0.39,1.21,1.21,0,0,1,.89-0.11s0,0,0,0a1.2,1.2,0,0,0-1.25.29A2,2,0,0,1,5.46,44a1.75,1.75,0,0,1,1.16-.18,1.47,1.47,0,0,0,.69,0l0-.08a4.72,4.72,0,0,1-1.42.08,1.42,1.42,0,0,0-.48.17,0,0,0,0,1,0,0l0,0A1.56,1.56,0,0,1,7,43.43a1,1,0,0,0,.57-0.14L7.68,43c0-.1,0-0.21,0-0.31h0A5.26,5.26,0,0,1,7,44.9c-0.11.23-.23,0.48-0.32,0.73H6.43a7.74,7.74,0,0,0-.77-0.09s0,0,0,0a9.76,9.76,0,0,0,1,.12c0,0.13-.08.26-0.12,0.38-0.42.08-.91,0.06-1.22,0.11A3.22,3.22,0,0,0,4,46.58l-0.09.07A1,1,0,0,1,4.17,46.11Zm-0.66,2a1.69,1.69,0,0,1,.79-0.8,2.36,2.36,0,0,1,1.05-.09,2.17,2.17,0,0,0,1-.18,0.14,0.14,0,0,1,0-.06,1.6,1.6,0,0,1-.55.19,6.92,6.92,0,0,1-1,0A1.4,1.4,0,0,0,3.58,48l0.05-.16a0,0,0,0,0,0-.05A1.45,1.45,0,0,1,4,47.35,2.31,2.31,0,0,1,5.28,47a6.17,6.17,0,0,0,1.15-.11s0,0,0-.06C5.87,47,5.14,46.85,4.61,47a1.72,1.72,0,0,0-1,.63,0.32,0.32,0,0,0,0-.18s0,0,0-.07v0h0V47.34a1,1,0,0,1,0-.15,1.38,1.38,0,0,1,.83-0.55c0.41-.1.85,0,1.26-0.07,0,0,0,0,0,0a3.36,3.36,0,0,0-1.61.15,1.24,1.24,0,0,0-.38.28,1.73,1.73,0,0,1,.16-0.21,1.81,1.81,0,0,1,.81-0.43A5.91,5.91,0,0,1,6,46.17a3.92,3.92,0,0,0,.49-0.06,2.17,2.17,0,0,0,0,.93,1.55,1.55,0,0,0-.17.5,3,3,0,0,1-.72.19c-0.32.06-.64,0.09-1,0.17a2,2,0,0,0-1.07.61,0.15,0.15,0,0,0-.05.08A3.85,3.85,0,0,1,3.51,48.16Zm0,0.59a1.2,1.2,0,0,1,.54-0.55,3.11,3.11,0,0,1,1.15-.33,4.2,4.2,0,0,0,1.08-.26,0.91,0.91,0,0,0,0,.15l0,0.06A3.79,3.79,0,0,1,5,48.31a3.49,3.49,0,0,0-.91.47,1.85,1.85,0,0,0-.58.64A1.18,1.18,0,0,1,3.54,48.74Zm0.13,1.41,0-.08a1,1,0,0,1,0-.44h0a1,1,0,0,1,.18-0.38,2.8,2.8,0,0,1,.71-0.58c0.53-.32,1.24-0.34,1.73-0.71-0.09.18-.19,0.33-0.29,0.5a2.11,2.11,0,0,1-.82.52,4.56,4.56,0,0,0-.84.47,1.59,1.59,0,0,0-.59.74Zm0.1,0.62a1.06,1.06,0,0,1,.18-0.91,2.46,2.46,0,0,1,.74-0.6,7.94,7.94,0,0,0,1-.51l-0.36.59a0,0,0,0,0,0,0s0,0,0,0a1.16,1.16,0,0,1-.51.47,6,6,0,0,0-.54.39A1.65,1.65,0,0,0,3.77,50.78ZM3.9,51.61a3.26,3.26,0,0,0-.08-0.54,1.37,1.37,0,0,1,.72-1,6.12,6.12,0,0,0,.74-0.6L5,50s0,0,0,0A3,3,0,0,0,4,51.42H4Zm1-.62L4.69,51h0a2.12,2.12,0,0,0,.64-1.46h0a1.89,1.89,0,0,0-.21.67,1.18,1.18,0,0,1-.53.79s0,0,0,0l0,0a1.36,1.36,0,0,0-.47.33,5.17,5.17,0,0,1,.88-1.36H5A17.35,17.35,0,0,0,6.1,48.27h0c-0.06.1-.12,0.2-0.17,0.31,0-.08.09-0.15,0.14-0.23l0,0.09a1.78,1.78,0,0,0-.2.57A1.27,1.27,0,0,1,6,48.57s0,0,0,0a1.51,1.51,0,0,0-.18.78l0.07-.18v0.1a3.15,3.15,0,0,0-.27.38c0-.19.05-0.38,0.07-0.56h0a2.75,2.75,0,0,0-.18.8,2,2,0,0,0-.15.5,2.24,2.24,0,0,0-.06.23A0.84,0.84,0,0,1,4.89,51Zm0.19,0a0.72,0.72,0,0,0,.15-0.17h0a0,0,0,1,0,0,0,0.25,0.25,0,0,1,0-.08h0v0.14a0.47,0.47,0,0,1,0,.07Zm0.08,0.8a1.25,1.25,0,0,0,0-.35A2.31,2.31,0,0,1,6,50.22a15.47,15.47,0,0,1,1.31-.88A3.56,3.56,0,0,0,9,47.16c0,0.24.08,0.49,0.12,0.74C8.86,49.23,7.62,50,6.56,50.7A4.44,4.44,0,0,0,5.15,52,1.58,1.58,0,0,1,5.17,51.75Zm2.22-.88a6.18,6.18,0,0,0-2.31,1.8c0.12-1.14,1.4-1.77,2.25-2.35a4.12,4.12,0,0,0,1.8-2.23c0,0.23.05,0.46,0.07,0.69h0a0,0,0,0,0,0,0c0,1.3-1.51,2.37-2.5,3a4.22,4.22,0,0,0-1.59,1.16,0.44,0.44,0,0,1,0-.1,4.1,4.1,0,0,1,1-1.1c0.42-.32.89-0.55,1.31-0.87h0ZM5.19,54.69a3.32,3.32,0,0,1-.11-0.38C5,54.12,5,53.94,5,53.75a2.09,2.09,0,0,1,.25-0.85,2,2,0,0,1,.83-0.64,11.47,11.47,0,0,0,1.5-.93,4.1,4.1,0,0,0,1.63-2c0,0.14,0,.29,0,0.44s-0.05.46-.08,0.69a0,0,0,0,0,0,0,4.35,4.35,0,0,1-1.22,1.66A11.66,11.66,0,0,1,6.24,53,2,2,0,0,0,5.19,54.69Zm3.94-4.08c0,0.05,0,.11,0,0.16l0,0A0.59,0.59,0,0,1,9.13,50.62ZM5.38,55.39c0-.08-0.05-0.16-0.07-0.23a2.15,2.15,0,0,1,.37-1.51,4,4,0,0,1,1.38-1,3.91,3.91,0,0,0,2-2.23c-0.05.32-.12,0.63-0.18,1h0c-0.11.16-.16,0.33-0.28,0.49a4.75,4.75,0,0,1-.66.64,15.29,15.29,0,0,1-1.34.94s0,0.05,0,0a5.83,5.83,0,0,0,1.51-1A6.12,6.12,0,0,0,8.66,52,6.74,6.74,0,0,1,6.5,54.13,2.82,2.82,0,0,0,5.42,55.5,0.32,0.32,0,0,1,5.38,55.39Zm0.33,1.39,0-.05c0-.17,0-0.35,0-0.52a5.36,5.36,0,0,1,.23-0.68s0,0,0,0a2.44,2.44,0,0,0-.33,1l0,0-0.08-.2a1.7,1.7,0,0,1,.37-1.46,6.23,6.23,0,0,1,1.28-1.06,5.1,5.1,0,0,0,1.46-1.52,12.26,12.26,0,0,1-.49,1.19s0,0-.05,0a11.06,11.06,0,0,1-1.75,2.2,2.35,2.35,0,0,0-.57,1.23A0.71,0.71,0,0,0,5.71,56.78Zm0.63,0.64a1.3,1.3,0,0,0-.09.42l-0.11-.16,0-.07h0a3.26,3.26,0,0,1,.78-2,0,0,0,0,0,0,0,2.32,2.32,0,0,0-.76,2A0.69,0.69,0,0,0,6,57.42a1.41,1.41,0,0,1,0-1,3.88,3.88,0,0,1,.77-1.07,11.81,11.81,0,0,0,1-1.11l-0.08.17a4.37,4.37,0,0,0-.32,1.1h0a6.16,6.16,0,0,0-.53.91A7.42,7.42,0,0,0,6.34,57.42Zm0.47,1.51a4,4,0,0,1-.11-0.78,2.39,2.39,0,0,1,.25-0.8s0-.05-0.05,0a1.45,1.45,0,0,0-.13,1.57,0.77,0.77,0,0,1-.12-0.12,3.3,3.3,0,0,1-.27-0.61,0.35,0.35,0,0,1,0-.13v0h0a1.65,1.65,0,0,1,.18-0.83c0.26-.55.61-1.08,0.84-1.66a6.26,6.26,0,0,0-.08,1.19,0.19,0.19,0,0,1,0-.08s0,0,0,0A3.81,3.81,0,0,1,7,57.82a2,2,0,0,0,0,.9,1.24,1.24,0,0,0,.36.55A5.26,5.26,0,0,1,6.81,58.93ZM8,59.35l0,0a1.59,1.59,0,0,0,.13.35l0,0-0.06,0a2.5,2.5,0,0,0-.29-0.18,1.78,1.78,0,0,1-.79-1A5.18,5.18,0,0,1,7.31,57c0,0.55.08,1.11,0.14,1.67,0,0,0,0,0,0,0-.78-0.12-1.56-0.12-2.34,0.06,0.18.11,0.38,0.15,0.57a2.73,2.73,0,0,1,0,.28A3.09,3.09,0,0,0,8,59.35ZM7.59,57a0.72,0.72,0,0,1,0-.14,1.29,1.29,0,0,0-.2-0.59,5,5,0,0,1,.32-1.62,5.46,5.46,0,0,0,0,1.92C7.65,56.73,7.62,56.88,7.59,57Zm0.68-2.69a3.65,3.65,0,0,0-.1.9,7.59,7.59,0,0,0-.45,1.24,9.93,9.93,0,0,1,0-1.87c0.09-.23.19-0.47,0.3-0.71s0.19-.42.28-0.64A5.82,5.82,0,0,1,8.27,54.34Zm0,0.64c0-.25.05-0.49,0.09-0.75a1.56,1.56,0,0,0-.07-1c0.18-.44.35-0.89,0.49-1.33h0a4.84,4.84,0,0,1,0,1.26,9.44,9.44,0,0,1-.28,1.28C8.46,54.6,8.38,54.78,8.29,55Zm0.84-1.72c-0.08.22-.22,0.4-0.31,0.6a6,6,0,0,0,.1-0.74,2.9,2.9,0,0,0-.09-1.31,1.22,1.22,0,0,0,0-.17c0.08-.28.15-0.55,0.22-0.84a3.73,3.73,0,0,1,.24,1.1c0,0.13,0,.23,0,0.33l0,0A5.31,5.31,0,0,1,9.13,53.27Zm0.6-1-0.08.17a1.74,1.74,0,0,0-.19-1.14s0,0,0,0a1.84,1.84,0,0,1,0,1.51s0,0,0,0a1.77,1.77,0,0,0-.09.18,3.57,3.57,0,0,0,.1-1.11,2,2,0,0,0-.28-1.13h0a4.66,4.66,0,0,0,.13-1.14A4.24,4.24,0,0,1,9.73,52.26ZM9.85,52v0S9.85,52,9.85,52Zm0-.08a3.72,3.72,0,0,0-.05-0.87,3.17,3.17,0,0,0-.5-1.54c0-.16,0-0.32,0-0.48a5.29,5.29,0,0,0,0-.73,4.9,4.9,0,0,1,.57,1.32,0.53,0.53,0,0,1,0,.06c0.08,0.35.2,0.69,0.24,1A3.23,3.23,0,0,1,9.84,51.94Zm0.7-1.83c0,0.09,0,.17-0.07.25a2.13,2.13,0,0,0-.38-1.27s0,0,0,0a2.44,2.44,0,0,1,.32,1.51c0,0.1-.07.2-0.09,0.3A3.89,3.89,0,0,0,10,49.7a3.45,3.45,0,0,0-.67-1.46,11,11,0,0,0-.15-1.29c0.31,0.53.59,1.05,0.88,1.6A3.15,3.15,0,0,1,10.54,50.11Zm0.06-1.28a4.34,4.34,0,0,0-.51-1.34s-0.05,0,0,0a5.32,5.32,0,0,1,.54,2.31,3.89,3.89,0,0,0-.35-1,7.14,7.14,0,0,0-1.1-2c-0.06-.34-0.13-0.68-0.22-1A1,1,0,0,1,9.1,46l0.33,0.38a5.55,5.55,0,0,1,.74,1,4.55,4.55,0,0,1,.46,1.6C10.62,49,10.62,48.88,10.6,48.83Zm0.13,0.12a0.14,0.14,0,0,0,0-.06h0v0.06Zm0-.14a5.6,5.6,0,0,0-1.8-3.11c-0.07-.29-0.14-0.59-0.21-0.9,0.38,0.52.9,0.95,1.31,1.46a3.78,3.78,0,0,1,.71,1.48,3.68,3.68,0,0,0-.42-0.85s-0.06,0,0,0A3.27,3.27,0,0,1,10.72,48.8Zm0-1.67a4.36,4.36,0,0,1,.08.58,4.1,4.1,0,0,0-.55-1.2,7.47,7.47,0,0,0-1.54-1.74c-0.06-.22-0.11-0.44-0.16-0.68a1,1,0,0,0,0-.15,1.92,1.92,0,0,0,.77.82,3.9,3.9,0,0,1,1.15,1.46h0C10.5,46.52,10.64,46.82,10.71,47.13Zm-0.33-1.43s0,0,0,0a1.26,1.26,0,0,0,0,.39A3.56,3.56,0,0,0,9.67,45a3.75,3.75,0,0,1-1.15-1.14,3,3,0,0,0,.94.77,2.85,2.85,0,0,1,1,1.13ZM10,45c-0.52-.52-1.29-0.74-1.58-1.46h0l-0.2-.8L8.25,42.8a3.07,3.07,0,0,1,.6.85A1,1,0,0,1,8.31,43h0a0.94,0.94,0,0,0,.6.7l0,0.05L9,43.85s0-.06,0-0.09A3.83,3.83,0,0,1,10.26,45h0l0.12,0.14a1.61,1.61,0,0,1,.27.5,5.34,5.34,0,0,1,.1.53A3.22,3.22,0,0,0,10,45Z"></path><path d="M26.21,70.49a1.86,1.86,0,0,0,0-.3,0.28,0.28,0,0,1,0-.08s0.05,0,.05,0a4.76,4.76,0,0,0-.39-1.92A1.24,1.24,0,0,0,26,67.68V67.45a3.76,3.76,0,0,0-.23-1.62,5.13,5.13,0,0,0-.18-2.64s0,0,0,0a3.11,3.11,0,0,0-.24-0.68,1.62,1.62,0,0,0,0-1.09h0a1.74,1.74,0,0,0-.26-1A1.24,1.24,0,0,0,25,60a3.79,3.79,0,0,1-.06-0.52h0s0,0,0,0a2.31,2.31,0,0,0-.48-1.23s0,0,0,0a3.93,3.93,0,0,0-.78-1.52,0,0,0,0,0,0,0,1.14,1.14,0,0,0-.24-0.55,2.2,2.2,0,0,0-.28-1.07,2.59,2.59,0,0,0-.72-1.66A5.07,5.07,0,0,0,22,52.81a1.85,1.85,0,0,0-.32-0.64,1.74,1.74,0,0,0-.31-0.38A6.27,6.27,0,0,0,21,51v0L21,51a4.34,4.34,0,0,0-.66-0.85,0,0,0,0,0,0,0,2.58,2.58,0,0,0-.28-0.64s0,0,0,0,0-.18,0-0.26a0,0,0,0,0,0,0A0.61,0.61,0,0,0,20,49a4.9,4.9,0,0,0-.85-2c-0.33-.5-0.84-0.94-1.2-1.45a1.13,1.13,0,0,0,0-.29A1.18,1.18,0,0,0,18,44.94a1.4,1.4,0,0,0-.47-2.18v0A10.9,10.9,0,0,0,17,40c-0.08-.31-0.17-0.6-0.23-0.9A5.86,5.86,0,0,1,16.54,37a1.47,1.47,0,0,1,1.31-1.24H17.9a17.48,17.48,0,0,0,6.54-1.26c1.23,1.43,1.58,3.62,1.67,5.66h0a0.55,0.55,0,0,0,0,.12l0.11,0h0a1.19,1.19,0,0,1,.35-0.05,1.41,1.41,0,0,1,.42.07,0.55,0.55,0,0,0,0-.12,1.35,1.35,0,0,0-.41-0.06,1.19,1.19,0,0,0-.35.05c-0.08-2-.44-4.23-1.67-5.67l0.7-.31a10.68,10.68,0,0,1,1.72,6,0.55,0.55,0,0,0,0,.12l0.11,0a0.55,0.55,0,0,0,0-.12,10.84,10.84,0,0,0-1.73-6.08A17.52,17.52,0,0,0,17.9.71h0A17.44,17.44,0,0,0,5.5,5.84,17.2,17.2,0,0,0,.34,18.2,17.55,17.55,0,0,0,9.42,33.56a7.16,7.16,0,0,1-.9,5.65l0.12,0a7.34,7.34,0,0,0,.92-5.59l0.87,0.44a8.44,8.44,0,0,1-1.12,5.51,1.45,1.45,0,0,0-.67-0.36l-0.06.1a1.31,1.31,0,0,1,.68.36,0.35,0.35,0,0,1,.06-0.09h0a0.35,0.35,0,0,1-.06.09l0.08,0.08h0a1.28,1.28,0,0,1,.3.83,1.29,1.29,0,0,1-.77,1.18,0.65,0.65,0,0,1,0,.13,1.4,1.4,0,0,0,.54-2.23h0a8.62,8.62,0,0,0,1.16-5.53A17.3,17.3,0,0,0,16,35.64a2.37,2.37,0,0,0-.17.23c-0.67,1.1-.25,2.75.15,4.36a14.28,14.28,0,0,1,.47,2.43v0a1.41,1.41,0,0,0-1,1.35,1.38,1.38,0,0,0,.54,1.1L16,45a1.28,1.28,0,0,1-.45-1,1.3,1.3,0,0,1,1-1.25V42.72h0v0.06a1.47,1.47,0,0,1,.34-0.05,1.32,1.32,0,0,1,.54.12v0A1.3,1.3,0,0,1,18.19,44a1.29,1.29,0,0,1-.28.8h0l-0.08.09a0.58,0.58,0,0,1,0,.11,0.88,0.88,0,0,1,0,.26,0.9,0.9,0,1,1-1.79,0,0.34,0.34,0,0,1,0-.09h0a0.57,0.57,0,0,1,0-.12L16,45l0,0.12h0a1,1,0,0,0,0,.16,1,1,0,0,0,.49.86,6.26,6.26,0,0,1-.63,2,15.81,15.81,0,0,0-.79,2.27,34.67,34.67,0,0,0-.82,5,24.68,24.68,0,0,0,1.12,10.5c0.18,0.52.39,1,.6,1.56a0.87,0.87,0,0,0,.19.44l0.19,0.41a3.54,3.54,0,0,0,.42.88c0.74,1.47,1.59,2.9,2.48,4.29l0.08,0.21a0,0,0,0,0,.08,0c0.24,0.38.51,0.78,0.77,1.16a1.51,1.51,0,0,0,.05.18,0,0,0,0,0,.08,0l0.13,0.21c0.22,0.32.44,0.64,0.67,0.95a2.23,2.23,0,0,0,.13.33,0.06,0.06,0,0,0,.1,0,19.87,19.87,0,0,1,1.54,2.38c0.61,1.16,1.27,2.61.8,3.94a0.09,0.09,0,0,0,0,0l-0.08,0s0,0,0,0a0.41,0.41,0,0,0,.26-0.08s0,0.05.07,0a3.56,3.56,0,0,0,.74-1.3c0.11-.3.23-0.61,0.32-0.94a4.19,4.19,0,0,0,.34-2.32A1.72,1.72,0,0,0,25.45,78l0-.09a0,0,0,0,0,0,0,2,2,0,0,0,.13-1,1.93,1.93,0,0,0,.22-0.46,1.51,1.51,0,0,0,.1-0.43,3.22,3.22,0,0,0-.08-1.1A3.42,3.42,0,0,0,26,74.6c0-.06.05-0.12,0.07-0.18a1.83,1.83,0,0,0,.08-1.65,0.76,0.76,0,0,0,.07-0.15,0.09,0.09,0,0,0,0,0,0.79,0.79,0,0,0,0-.15v0s0-.06,0-0.08A3.9,3.9,0,0,0,26.21,70.49Zm-7.86-35L18,34.27a16.46,16.46,0,0,0,3.23-.34l0.64,1.13A17.62,17.62,0,0,1,18.35,35.51ZM17.77,3.15c-0.15,2.2-1.54,4.17-2.89,6.07-0.31.44-.61,0.86-0.9,1.3a0.46,0.46,0,0,0-.26-0.08,0.45,0.45,0,0,0-.44.39C12.67,10.88,12,11,11.39,11c-2.2.28-4.47,0.57-6.54-.42a6.09,6.09,0,0,0-.69-0.39A15.87,15.87,0,0,1,17.75,2.36C17.75,2.63,17.75,2.89,17.77,3.15ZM18,33.26c0.15-2.2,1.54-4.17,2.89-6.07,0.31-.44.61-0.85,0.9-1.28A0.42,0.42,0,0,0,22,26a0.45,0.45,0,0,0,.44-0.39c0.62-.05,1.26-0.13,1.9-0.21,2.2-.28,4.47-0.57,6.54.42a6.09,6.09,0,0,0,.69.39A15.87,15.87,0,0,1,18,34.06C18,33.78,18,33.52,18,33.26ZM13.49,24.8a0.46,0.46,0,0,0-.18,0,6.06,6.06,0,0,1-.91-3c0-.08,0-0.18,0-0.26a4.49,4.49,0,0,0,.9.34,6.06,6.06,0,0,0,1.5.2A4.62,4.62,0,0,0,15.72,22a5.2,5.2,0,0,0,2,2.59,7.15,7.15,0,0,1-3.78.69s0,0,0-.05A0.45,0.45,0,0,0,13.49,24.8ZM13,25.24l-1.46-.13a14.34,14.34,0,0,0-6.17.28,12.87,12.87,0,0,0,3.16-5.11c0.26-.61.51-1.22,0.79-1.79l0.14,0,0.15,0a7.12,7.12,0,0,0,2.59,3c0,0.12,0,.23,0,0.34a6.14,6.14,0,0,0,.95,3.12,0.44,0.44,0,0,0-.13.31h0ZM9.77,17.71A6.12,6.12,0,0,1,12,15.27l0.23-.13a4.71,4.71,0,0,0,.15,1,5.45,5.45,0,0,0,1.1,2.15,5.19,5.19,0,0,0-1.24,3A7.05,7.05,0,0,1,9.8,18.41,0.46,0.46,0,0,0,10,18.08,0.5,0.5,0,0,0,9.77,17.71Zm7.08,1.77a0.45,0.45,0,0,0-.21.05,5.71,5.71,0,0,1-.71-1.27c0-.1.08-0.21,0.12-0.31a6.3,6.3,0,0,1,.8-1.4l0.33-.05A6.62,6.62,0,0,1,18,16.44l0.46,0v0a0.45,0.45,0,0,0,.45.45,0.39,0.39,0,0,0,.19-0.05,5.85,5.85,0,0,1,.71,1.26c0,0.1-.08.21-0.12,0.31a6.3,6.3,0,0,1-.8,1.4l-0.32.05a5.72,5.72,0,0,1-1.26,0v0A0.46,0.46,0,0,0,16.85,19.47Zm-1.1-1.21a6.19,6.19,0,0,0-.28,1.24,4.9,4.9,0,0,1-1.75-1.26A5.29,5.29,0,0,1,15.41,17,5.6,5.6,0,0,0,15.75,18.26ZM15.56,17a5.8,5.8,0,0,1,1-.34,6.22,6.22,0,0,0-.71,1.28L15.84,18A6.11,6.11,0,0,1,15.56,17Zm0.29,1.55a6.41,6.41,0,0,0,.66,1.14,0.44,0.44,0,0,0-.09.18,5,5,0,0,1-.79-0.24A5.07,5.07,0,0,1,15.85,18.5Zm3.37-1.72a0.4,0.4,0,0,0,.1-0.18,5.55,5.55,0,0,1,.78.24,6.39,6.39,0,0,1-.22,1.07A6.25,6.25,0,0,0,19.23,16.79Zm0.61,1.73,0.05-.13a5.75,5.75,0,0,1,.28,1.07,5.8,5.8,0,0,1-1,.34A5.85,5.85,0,0,0,19.84,18.52ZM20,18.14a6.19,6.19,0,0,0,.28-1.24A4.9,4.9,0,0,1,22,18.16a5.29,5.29,0,0,1-1.69,1.23A5.73,5.73,0,0,0,20,18.14Zm0.3-1.41a5.51,5.51,0,0,0-.22-2.18,4.79,4.79,0,0,1,.86-0.08,5.72,5.72,0,0,1,1.46.19,4,4,0,0,1,.94.37,5.07,5.07,0,0,1-1.19,3A5.1,5.1,0,0,0,20.28,16.73Zm-0.16-.07a5.19,5.19,0,0,0-.78-0.23A0.44,0.44,0,0,0,18.9,16a0.4,0.4,0,0,0-.24.08,6.36,6.36,0,0,0-.71-0.63,5,5,0,0,1,2-.9A5.48,5.48,0,0,1,20.12,16.66Zm-1.59-.44a0.34,0.34,0,0,0,0,.08,6.49,6.49,0,0,0-1.34,0l-0.14,0a4.94,4.94,0,0,1,.8-0.77A6.61,6.61,0,0,1,18.53,16.22Zm-1.77.18a6.36,6.36,0,0,0-1.21.38,5,5,0,0,1,.21-2.14,5.37,5.37,0,0,1,1.91.85A5.87,5.87,0,0,0,16.76,16.4Zm-1.38.44a5.53,5.53,0,0,0-1.77,1.27,5.42,5.42,0,0,1-1.05-2.07,4.16,4.16,0,0,1-.15-1,5,5,0,0,1,3.18-.46A5.19,5.19,0,0,0,15.38,16.85ZM13.6,18.38a5.1,5.1,0,0,0,1.85,1.3,5.51,5.51,0,0,0,.22,2.18,4.79,4.79,0,0,1-.86.08,5.72,5.72,0,0,1-1.46-.19,4,4,0,0,1-.94-0.37A5.07,5.07,0,0,1,13.6,18.38Zm2,1.36a6.69,6.69,0,0,0,.8.24,0.45,0.45,0,0,0,.68.33,5,5,0,0,0,.71.62,5,5,0,0,1-2,.9A5.35,5.35,0,0,1,15.61,19.74Zm1.6,0.45a0.44,0.44,0,0,0,.05-0.08l0.48,0a5.55,5.55,0,0,0,.84-0.06l0.14,0a4.94,4.94,0,0,1-.8.77A5,5,0,0,1,17.21,20.19ZM19,20a6.36,6.36,0,0,0,1.21-.38A5,5,0,0,1,20,21.77a5.37,5.37,0,0,1-1.91-.85A6.26,6.26,0,0,0,19,20Zm1.37-.45a5.53,5.53,0,0,0,1.77-1.27,5.42,5.42,0,0,1,1.05,2.07,4.16,4.16,0,0,1,.15,1,5.07,5.07,0,0,1-3.18.46A5.07,5.07,0,0,0,20.35,19.56Zm1.89-1.4a5.19,5.19,0,0,0,1.24-3A7.13,7.13,0,0,1,26,18.06a0.45,0.45,0,0,0-.15.33,0.47,0.47,0,0,0,.14.33,6,6,0,0,1-2.23,2.42l-0.23.13a4.71,4.71,0,0,0-.15-1A5.58,5.58,0,0,0,22.24,18.16Zm1.26,3.29,0.3-.17a6.21,6.21,0,0,0,2.28-2.48,0.54,0.54,0,0,0,.17,0h0.1c0.22,0.44.42,0.9,0.64,1.35,0.89,1.92,1.79,3.91,3.33,5.2a12.78,12.78,0,0,0-6-.18c-0.64.08-1.27,0.16-1.89,0.21a0.47,0.47,0,0,0-.19-0.27A7.05,7.05,0,0,0,23.5,21.45ZM26.35,18H26.26l-0.15,0a7.18,7.18,0,0,0-2.61-3c0-.12,0-0.23,0-0.34a6.34,6.34,0,0,0-1-3.25,0.42,0.42,0,0,0,.17-0.19l1.48,0.13A14.34,14.34,0,0,0,30.31,11a12.87,12.87,0,0,0-3.16,5.11C26.89,16.75,26.63,17.36,26.35,18Zm-3-3.36c0,0.08,0,.18,0,0.26a4.49,4.49,0,0,0-.9-0.34A5.55,5.55,0,0,0,20,14.39a5.2,5.2,0,0,0-2-2.59,6.58,6.58,0,0,1,3.29-.69h0.53a0.45,0.45,0,0,0,.43.3h0.08A6.27,6.27,0,0,1,23.34,14.59Zm-3.49-.17a5.3,5.3,0,0,0-2.05.95,5.67,5.67,0,0,0-2-.9,5.44,5.44,0,0,1,1.26-2,4.25,4.25,0,0,1,.79-0.63A5.12,5.12,0,0,1,19.85,14.43Zm-2.9-2a5.57,5.57,0,0,0-1.31,2,5.16,5.16,0,0,0-3.24.44,7.12,7.12,0,0,1,1.26-3.56h0.07A0.45,0.45,0,0,0,14.17,11a6.15,6.15,0,0,1,3.31.72l0.22,0.13A3.61,3.61,0,0,0,17,12.41ZM12.23,15l-0.3.17a6.31,6.31,0,0,0-2.31,2.51l-0.11,0-0.1,0C9.18,17.18,9,16.71,8.75,16.23,7.86,14.31,7,12.33,5.42,11a12.78,12.78,0,0,0,6,.18c0.64-.08,1.26-0.16,1.87-0.21a0.47,0.47,0,0,0,.21.28A6.86,6.86,0,0,0,12.23,15Zm3.66,7A5.3,5.3,0,0,0,17.94,21a5.67,5.67,0,0,0,2,.9,5.44,5.44,0,0,1-1.26,2,4.25,4.25,0,0,1-.79.63A5.11,5.11,0,0,1,15.89,22Zm2.9,2a5.57,5.57,0,0,0,1.31-2,5.12,5.12,0,0,0,1,.09,5.37,5.37,0,0,0,2.29-.53,7.11,7.11,0,0,1-1.26,3.57H22a0.45,0.45,0,0,0-.44.38,6.18,6.18,0,0,1-3.3-.72L18,24.61A4.72,4.72,0,0,0,18.78,24ZM31,25.64c-1.83-1.23-2.84-3.41-3.81-5.53-0.21-.46-0.42-0.91-0.63-1.35a0.45,0.45,0,0,0,0-.74c0.28-.59.54-1.21,0.8-1.83C28.17,14.13,29.06,12,31,10.74a6.8,6.8,0,0,0,.68-0.39,15.81,15.81,0,0,1,0,15.69A7.3,7.3,0,0,0,31,25.64Zm-0.1-15c-2,1-4.38.74-6.7,0.53L22.7,11v0a0.45,0.45,0,0,0-.45-0.45,0.4,0.4,0,0,0-.24.08c-0.36-.53-0.76-1.05-1.16-1.58-1.35-1.77-2.73-3.58-2.9-5.87a6.17,6.17,0,0,0,0-.79,15.84,15.84,0,0,1,13.6,7.83A5.08,5.08,0,0,0,30.85,10.59ZM20.71,9.11c0.41,0.54.81,1.07,1.18,1.6a0.44,0.44,0,0,0-.08.23,7.14,7.14,0,0,0-4,.75l-0.29-.18a6.37,6.37,0,0,0-3.41-.74,0.43,0.43,0,0,0-.06-0.14c0.29-.44.6-0.88,0.92-1.32a14.37,14.37,0,0,0,2.84-5.49A12.64,12.64,0,0,0,20.71,9.11ZM4.78,10.76C6.61,12,7.62,14.18,8.59,16.29c0.22,0.48.44,0.95,0.66,1.41a0.45,0.45,0,0,0-.19.37,0.45,0.45,0,0,0,.16.34c-0.28.58-.54,1.19-0.8,1.81-0.85,2.05-1.74,4.16-3.63,5.45a5.49,5.49,0,0,0-.68.39,15.81,15.81,0,0,1,0-15.69A5.16,5.16,0,0,0,4.78,10.76ZM4.87,25.82c2-1,4.38-.74,6.7-0.53l1.51,0.13a0.45,0.45,0,0,0,.42.28l0.13,0c0.38,0.58.82,1.15,1.26,1.72,1.35,1.77,2.73,3.58,2.9,5.87a6.17,6.17,0,0,0,0,.79A15.84,15.84,0,0,1,4.2,26.21,5.32,5.32,0,0,0,4.87,25.82ZM15,27.29c-0.44-.57-0.86-1.14-1.25-1.71a0.51,0.51,0,0,0,.11-0.13,7.34,7.34,0,0,0,4-.74l0.29,0.18a6.36,6.36,0,0,0,3.38.74,0.53,0.53,0,0,0,.07.16c-0.29.44-.59,0.86-0.9,1.31a14.37,14.37,0,0,0-2.84,5.49A12.72,12.72,0,0,0,15,27.29ZM21.94,35l-0.64-1.13a16.27,16.27,0,0,0,3.09-1l0.87,1A16.75,16.75,0,0,1,21.94,35Zm3.41-1.21-0.86-1a16.06,16.06,0,0,0,2.8-1.63L28.34,32A17.66,17.66,0,0,1,25.35,33.81Zm3.07-1.9-1-.77A16.51,16.51,0,0,0,29.79,29L31,29.5A17.38,17.38,0,0,1,28.43,31.91ZM31,29.42l-1.19-.54a16.09,16.09,0,0,0,1.91-2.63L33,26.53A17.7,17.7,0,0,1,31,29.42Zm2-3-1.27-.28a16.31,16.31,0,0,0,1.32-3h1.31A17,17,0,0,1,33.09,26.44Zm1.39-3.35H33.17a16.07,16.07,0,0,0,.67-3.17l1.27-.27A16.83,16.83,0,0,1,34.48,23.09Zm0.7-4.89c0,0.44,0,.89-0.05,1.32l-1.27.27c0.05-.52.08-1.05,0.08-1.59a15.47,15.47,0,0,0-.08-1.66L35,16A18.9,18.9,0,0,1,35.18,18.2ZM35,15.91l-1.19.53a15.83,15.83,0,0,0-.68-3.17l1.05-.76A16.44,16.44,0,0,1,35,15.91Zm-0.85-3.52-1.05.76a16.26,16.26,0,0,0-1.33-3l0.88-1A16.9,16.9,0,0,1,34.17,12.39ZM32.6,9.13l-0.87,1a16.32,16.32,0,0,0-1.91-2.61l0.65-1.13A18.09,18.09,0,0,1,32.6,9.13ZM30.39,6.27L29.74,7.4a15.66,15.66,0,0,0-2.42-2.17L27.73,4A16.9,16.9,0,0,1,30.39,6.27ZM27.64,3.92L27.23,5.16a16.71,16.71,0,0,0-2.81-1.62l0.14-1.3A17.41,17.41,0,0,1,27.64,3.92ZM24.46,2.2L24.32,3.5a15.48,15.48,0,0,0-3.09-1L21.09,1.2A16.78,16.78,0,0,1,24.46,2.2Zm-6.6-1.31A17.46,17.46,0,0,1,21,1.18l0.13,1.3a15.84,15.84,0,0,0-3.23-.33L17.5,0.9h0.37Zm-0.49,0,0.39,1.24a16.46,16.46,0,0,0-3.23.34L13.89,1.34A18.11,18.11,0,0,1,17.38.9Zm-3.59.48,0.64,1.13a16.27,16.27,0,0,0-3.09,1l-0.88-1A17,17,0,0,1,13.79,1.38ZM10.37,2.59l0.87,1A16.13,16.13,0,0,0,8.44,5.2L7.38,4.42A16.94,16.94,0,0,1,10.37,2.59ZM5.63,6A17.42,17.42,0,0,1,7.3,4.49L8.36,5.27A16,16,0,0,0,6,7.45l-1.2-.54C5,6.58,5.33,6.27,5.63,6ZM4.68,7l1.2,0.54A16.46,16.46,0,0,0,4,10.15L2.68,9.87A17.27,17.27,0,0,1,4.68,7ZM2.63,10l1.28,0.28a15.49,15.49,0,0,0-1.31,3H1.28A16.86,16.86,0,0,1,2.63,10ZM1.25,13.32H2.56a16.07,16.07,0,0,0-.67,3.17l-1.27.27A17.53,17.53,0,0,1,1.25,13.32ZM0.56,18.2c0-.44,0-0.89.05-1.32l1.27-.27c-0.05.52-.08,1.05-0.08,1.59a15.47,15.47,0,0,0,.08,1.66l-1.19.53A17,17,0,0,1,.56,18.2Zm0.15,2.29L1.89,20a16,16,0,0,0,.68,3.17l-1.05.76A17.58,17.58,0,0,1,.71,20.49ZM1.56,24l1.05-.76a15.71,15.71,0,0,0,1.33,3l-0.88,1A17.44,17.44,0,0,1,1.56,24Zm1.57,3.26,0.87-1a15.94,15.94,0,0,0,1.92,2.62L5.27,30.06A17.21,17.21,0,0,1,3.13,27.27Zm2.21,2.86L6,29a16.46,16.46,0,0,0,2.41,2.17L8,32.42A17.76,17.76,0,0,1,5.34,30.14Zm2.75,2.34L8.5,31.24a16.16,16.16,0,0,0,2.81,1.62l-0.14,1.3A17.17,17.17,0,0,1,8.09,32.48Zm3.19,1.73,0.14-1.3a15.48,15.48,0,0,0,3.09,1l0.13,1.3A17.35,17.35,0,0,1,11.28,34.21Zm3.46,1-0.13-1.3a16.46,16.46,0,0,0,3.23.33l0.39,1.24H17.86A17.44,17.44,0,0,1,14.74,35.23Zm2.15,7.38a1.06,1.06,0,0,0-.28,0,15.57,15.57,0,0,0-.47-2.44c-0.4-1.58-.81-3.22-0.17-4.28a1.33,1.33,0,0,1,.21-0.28c0.43,0,.86.07,1.3,0.08A1.46,1.46,0,0,0,16.42,37a5.91,5.91,0,0,0,.23,2.18c0.07,0.29.15,0.59,0.23,0.9a12.93,12.93,0,0,1,.51,2.68A1.35,1.35,0,0,0,16.89,42.61Zm8.87,24.13a2.17,2.17,0,0,0-.76-1s0,0,0,0a3.71,3.71,0,0,1,.85,1.53l0,0.33a0,0,0,0,0,0,0,0.63,0.63,0,0,0,0,.13c0,0.1,0,.18,0,0.28a5.79,5.79,0,0,0-1.41-1.88c-1.31-1.15-3.16-1.91-4-3.52,0,0-.08,0-0.07,0,0.62,1.5,2.3,2.22,3.48,3.2a6.34,6.34,0,0,1,1.64,1.86,8,8,0,0,1,.59,2,1.49,1.49,0,0,1,0,.51,5.88,5.88,0,0,0-1.61-2.34c-1.17-1-2.8-1.55-3.48-3,0,0,0,0,0,0l-0.3-1.11c-0.26-1-.54-1.94-0.83-2.92,0.58,1.1,2,1.73,3,2.29A6.35,6.35,0,0,1,25,64.78,3.68,3.68,0,0,1,25.61,66a0.79,0.79,0,0,0,0,.16s0,0,0,0a0.21,0.21,0,0,1,0,0A4.64,4.64,0,0,1,25.76,66.74Zm-0.24-3.23s0.05,0,.06,0a5.59,5.59,0,0,1,.18,1.33,3.71,3.71,0,0,1-.09.81,5,5,0,0,0-1.69-2c-1.39-1-3.78-1.57-4.26-3.41h0c0-.05,0-0.12-0.05-0.18a2.61,2.61,0,0,0,1.42,1.09,10.24,10.24,0,0,1,2.69,1.11s0,0,0,0c-1.14-1.06-3.73-.75-4.21-2.49a0,0,0,0,0,0,0l-0.24-.82c0.59,0.86,1.87,1.13,2.8,1.44a6.92,6.92,0,0,1,2.1,1A4.63,4.63,0,0,1,25.52,63.51ZM25.2,61.69c0,0.07.08,0.07,0.08,0a0.05,0.05,0,0,0,0,0,1.28,1.28,0,0,1,0,.36,3.63,3.63,0,0,1-.07.38,4.43,4.43,0,0,0-2.19-1.85c-1.26-.55-3.26-0.72-3.88-2.12q-0.21-.69-0.4-1.38A5,5,0,0,0,22,59.13a12.09,12.09,0,0,1,2,.57A1.88,1.88,0,0,1,25.2,61.69ZM24.9,59.95c0,0.11,0,.22.05,0.33a3.08,3.08,0,0,0-1.71-.92c-1.67-.4-3.52-0.77-4.48-2.38,0,0,0,0,0,0s-0.06-.16-0.08-0.23l-0.29-1.07a5.57,5.57,0,0,0,3,2c0.74,0.21,1.53.08,2.24,0.31C24.63,58.29,24.58,59.09,24.9,59.95Zm-6.54-4.38a0.24,0.24,0,0,1,0-.09L18.4,55.6A0.09,0.09,0,0,1,18.37,55.57Zm6.06,2.73,0,0a2.65,2.65,0,0,0-1.77-.54,5.43,5.43,0,0,1-2.77-.86,5.14,5.14,0,0,1-.68-0.61,3.59,3.59,0,0,0,.66.3c0.9,0.33,1.85,0,2.7.47,0,0,.07,0,0-0.05a2.75,2.75,0,0,0-1.84-.31,3.58,3.58,0,0,1-1.8-.65c-0.1-.08-0.18-0.18-0.28-0.25a1.71,1.71,0,0,1-.33-0.54,0,0,0,0,0,0,0L18,54a5.25,5.25,0,0,0,2.87,2c0.69,0.22,1.43.23,2.12,0.45C23.93,56.81,24,57.58,24.43,58.3Zm-0.84-1.63a3.06,3.06,0,0,0-1.49-.44,5.78,5.78,0,0,1-4.15-2.39c-0.09-.43-0.18-0.85-0.25-1.29a2.3,2.3,0,0,0,.13.21c0.32,1,1.72,1.67,2.59,2.07C21.54,55.35,22.91,55.53,23.59,56.67ZM17.7,52.32l0.07,0.12a0,0,0,0,0,0,0A1.17,1.17,0,0,1,17.7,52.32ZM23.32,56a6.09,6.09,0,0,0-2.14-1c-1.23-.44-2.9-1.14-3.35-2.48a2.27,2.27,0,0,0,.73.68c0.52,0.29,1.15.23,1.69,0.49,0,0,0,0,0,0a4.52,4.52,0,0,0-1.3-.36,2.27,2.27,0,0,1-1.34-1.16c0-.23-0.08-0.44-0.1-0.68,0.28,0.92,1.58,1.26,2.38,1.48a5.86,5.86,0,0,1,2.12,1A3.7,3.7,0,0,1,23.32,56ZM17.75,46a1.62,1.62,0,0,0,.51.44s0,0,0,0c-0.15-.16-0.33-0.3-0.48-0.47A1.13,1.13,0,0,0,18,45.63c0.26,0.34.59,0.64,0.86,1a6,6,0,0,1,1,1.79A2.67,2.67,0,0,0,19,47.25a3.75,3.75,0,0,1-1.38-1.13Zm-0.38.26a0.93,0.93,0,0,0,.16-0.08,1.83,1.83,0,0,0,.66.68,3.66,3.66,0,0,1,1.56,1.63A1.75,1.75,0,0,0,19,47.84a0,0,0,0,0,0,.05,5.3,5.3,0,0,1,.65.57c0.14,0.18.27,0.38,0.39,0.58s0,0.23.05,0.33a5.6,5.6,0,0,0-1.14-1.21c-0.65-.53-1.55-1-1.53-1.93h0Zm0.79,1.51A7.39,7.39,0,0,1,20.23,50a1.68,1.68,0,0,0-.33-0.27c-1-.74-2.39-1-2.56-2.53h0c-0.12,1.21,1,1.69,1.91,2.19a4.27,4.27,0,0,1,1.26,1l0.08,0.11a1.52,1.52,0,0,0-.64-0.29l-0.7-.1a3.08,3.08,0,0,1-.89-0.33s0,0,0,0a2.19,2.19,0,0,0,1.1.38,2.18,2.18,0,0,1,1.37.64c0.16,0.25.29,0.53,0.44,0.8-1.23-1-3.5-.87-3.87-2.74,0,0,0,0,0,0a1.9,1.9,0,0,0,1.46,1.7,16.67,16.67,0,0,1,1.71.64,3.31,3.31,0,0,1,1.12,1l0.13,0.27s0,0.07,0,.11A2.91,2.91,0,0,0,20.94,52c-1.29-.49-3-0.31-3.54-1.91,0,0,0,0,0,0,0.11,1.21,1.57,1.52,2.53,1.7a3.37,3.37,0,0,1,1.94.9v0a1.63,1.63,0,0,0,.1.24s0,0,.05,0a0,0,0,0,0,0,0,16.7,16.7,0,0,1,.91,1.55s0,0,0,0a1.58,1.58,0,0,1,.07.36,4.84,4.84,0,0,0-2.06-1.67c-1.18-.51-3-0.52-3.47-2-0.09-.69-0.17-1.39-0.21-2.09a18.69,18.69,0,0,1,0-2.47A2.38,2.38,0,0,0,18.15,47.73Zm-1.51-1.51a1,1,0,0,0,.38.08,1.05,1.05,0,0,0,.28,0,0.46,0.46,0,0,0,0,.15,15.11,15.11,0,0,0,0,2.75,34.76,34.76,0,0,0,.64,4.65s0,0,0,0a0,0,0,0,1,0,0c0.18,0.9.4,1.8,0.65,2.69,0.18,0.62.37,1.26,0.55,1.87a0.05,0.05,0,0,0,0,0l0.08,0.19c0.51,1.71,1.05,3.4,1.5,5.12,0.24,1,.5,2,0.76,2.95a0.05,0.05,0,0,0,0,0s0,0.07,0,.11,0.07,0.28.11,0.41a0,0,0,0,0,0,0l0.08,0.18c0.09,0.4.2,0.81,0.3,1.22-0.13-.45-0.27-0.88-0.39-1.33a0.09,0.09,0,0,0,0,0,0,0,0,0,0,0,0c-0.78-2.58-1.57-5.14-2.33-7.73-0.49-1.72-1-3.43-1.42-5.16-0.21-.81-0.43-1.62-0.61-2.43,0,0,0,0,0,0h0a23.77,23.77,0,0,1-.44-2.5A27.79,27.79,0,0,1,16.63,46.21Zm-1.14,3.21a28.23,28.23,0,0,0,1-2.64c0,0.24,0,.48,0,0.71v0a17.75,17.75,0,0,1-1,2.38c-0.15.31-.31,0.62-0.44,0.95C15.2,50.36,15.34,49.89,15.49,49.43Zm-0.6,2.34c0.29-.8.6-1.57,1-2.33a8.08,8.08,0,0,0,.66-1.72c0,0.38,0,.74.06,1.11a0,0,0,0,0,0,0,6.58,6.58,0,0,1-1.15,2.49,6,6,0,0,0-.6.92C14.83,52.11,14.85,51.95,14.89,51.77Zm-0.22,1.28A7.09,7.09,0,0,1,15.8,51a5.56,5.56,0,0,0,.79-1.92c0,0.26.06,0.52,0.09,0.78A9.65,9.65,0,0,1,16,51.57c-0.25.44-.59,0.81-0.88,1.23a4.71,4.71,0,0,0-.61,1.15C14.59,53.64,14.63,53.35,14.67,53.05ZM14.42,55a0,0,0,0,0,0,0,6.41,6.41,0,0,1,1.11-2.51A6.1,6.1,0,0,0,16.69,50c0,0.15,0,.3.08,0.44a0,0,0,0,0,0,0,4.13,4.13,0,0,1-1,2.13s0,0.05,0,0a3.23,3.23,0,0,0,1.06-2l0.08,0.4a8.79,8.79,0,0,1-1.46,3.08A7.29,7.29,0,0,0,14.33,56C14.36,55.69,14.39,55.33,14.42,55Zm2.49-3.77L17,51.45c0,0.23.08,0.44,0.14,0.65A6.3,6.3,0,0,1,16.5,54c-0.39.64-.78,1.29-1.15,2a13.29,13.29,0,0,0-.87,1.77c0,0.15-.1.33-0.17,0.52a6.1,6.1,0,0,1,.19-1.6A13.54,13.54,0,0,1,15,55.25s-0.06-.08-0.09,0a4.71,4.71,0,0,0-.65,1.43C14.65,54.63,16.51,53.25,16.91,51.21Zm-2.62,7.91a0.09,0.09,0,0,0,0,0A4.36,4.36,0,0,1,15,56.92c0.31-.58.61-1.15,1-1.72a12.37,12.37,0,0,0,.94-1.7,4.72,4.72,0,0,0,.26-1.26c0.08,0.38.18,0.75,0.28,1.13A6,6,0,0,1,16,57a11.19,11.19,0,0,0-1.62,3.2,22.31,22.31,0,0,1,2.18-3.88,5.36,5.36,0,0,0,.93-2.46c0.09,0.34.18,0.69,0.27,1,0,0,0,0,0,0a11,11,0,0,1-1.92,4.56,6.19,6.19,0,0,0-1.19,2.93A21.07,21.07,0,0,1,14.29,59.12ZM16,66.74l0,0.33c-0.13-.33-0.25-0.66-0.38-1-0.25-.74-0.47-1.48-0.68-2.21a5,5,0,0,1-.07-1.36,7.34,7.34,0,0,1,.44-1.68,0,0,0,0,0-.06,0,4,4,0,0,0-.43,1.05,4,4,0,0,1,.47-1.26c0.33-.64.74-1.23,1.1-1.86A8.21,8.21,0,0,0,17.8,55c0.08,0.34.18,0.68,0.27,1A8.15,8.15,0,0,1,17.58,58c-0.33.59-.73,1.13-1.08,1.71a7.38,7.38,0,0,0-1.27,3.16s0,0,0,0a11.1,11.1,0,0,1,1.61-3.59,11.14,11.14,0,0,0,.93-1.62,10.13,10.13,0,0,0,.31-1.48l0.28,1a0.13,0.13,0,0,1,0,.08c-0.11.44-.11,0.89-0.21,1.31a6.85,6.85,0,0,1-.5,1.35c-0.34.69-.74,1.36-1.15,2a5.2,5.2,0,0,0-1,3.6s0,0,0,0A6.88,6.88,0,0,1,17,61.32a13.86,13.86,0,0,0,1-2,14.58,14.58,0,0,0,.42-2c0.1,0.37.21,0.73,0.31,1.1,0,0,0,0,0,0,0,1.77-1,3.21-1.73,4.75A7,7,0,0,0,16,66.74Zm1,2.51a8.32,8.32,0,0,1-.6-1.75,6.07,6.07,0,0,1,0-1.74s-0.05,0-.06,0a3.43,3.43,0,0,0-.13.61,0,0,0,0,0,0,0,5,5,0,0,1,.36-1.75,24.52,24.52,0,0,1,1.1-2.33c0.56-1.07,1.35-2.32,1.26-3.58,0.09,0.34.2,0.69,0.29,1a6.79,6.79,0,0,1-.59,2.6c-0.36.8-.8,1.53-1.08,2.35A7.81,7.81,0,0,0,17,69.31,0.07,0.07,0,0,0,17,69.26Zm0.19,0.43s0,0,0,0A6,6,0,0,1,17,66.53a11.82,11.82,0,0,1,.81-2.59c0.57-1.25,1.38-2.52,1.35-3.93l0.36,1.24s0,0,0,0c0,1.81-.8,3.42-1.4,5.1a7.63,7.63,0,0,0-.59,4.05C17.42,70.18,17.29,69.92,17.15,69.68Zm0.68,1.19c-1-3.41,1.83-6.25,1.77-9.61,0.08,0.3.19,0.62,0.28,0.92,0,0,0,0,0,0a13.79,13.79,0,0,0-.34,2.34s0,0,0,0c0.22-.76.13-1.56,0.34-2.32,0.07,0.19.12,0.41,0.19,0.62a16.46,16.46,0,0,1-1,5.34c-0.33,1-1,2.47-.72,3.62C18.18,71.48,18,71.19,17.83,70.87Zm1.35,2.21-0.59-.93a5,5,0,0,1,.18-2.54c0.21-.74.46-1.46,0.65-2.18A15.59,15.59,0,0,0,20.11,63c0.18,0.59.35,1.19,0.54,1.77-0.31,1.59-.17,3.18-0.7,4.75A7.68,7.68,0,0,0,19.18,73.08Zm0.19,0.31h0Zm0.76,1.11s0,0,0,0a10.54,10.54,0,0,1-.69-1.41,4,4,0,0,1-.08-0.89A19.53,19.53,0,0,1,20.23,69a32.88,32.88,0,0,0,.47-4.07c0.24,0.83.5,1.67,0.78,2.51a4.2,4.2,0,0,0,0,1.26A9.48,9.48,0,0,1,21,71.28C20.72,72.27,20,73.42,20.13,74.5Zm0.92,1.33c-0.27-.37-0.52-0.74-0.78-1.09-0.13-1.34.63-2.54,0.95-3.83a8.5,8.5,0,0,0,.32-2.09c0-.4-0.06-0.8,0-1.19l0.2,0.69c0.15,0.5.31,1,.44,1.51a23.4,23.4,0,0,1-.56,3.66A5.62,5.62,0,0,0,21.05,75.83Zm0.89,1.26a0,0,0,0,0,0,0c-0.63-1-.29-2,0-3,0,0,0-.05,0,0a3.75,3.75,0,0,0-.33,2.54c-0.1-.15-0.21-0.28-0.3-0.43C21,75,21.63,74,21.84,72.86c0.17-1,.26-1.9.37-2.85,0.16,0.61.33,1.21,0.49,1.82a25,25,0,0,1-.28,3.28A4.93,4.93,0,0,0,22,77.18Zm0.85,1.32c-0.21-.36-0.44-0.72-0.68-1.06a8.81,8.81,0,0,1,.49-2.73c0.16-.84.06-1.72,0.14-2.58,0.16,0.61.32,1.23,0.47,1.84,0.08,0.38.17,0.74,0.24,1.1A5.07,5.07,0,0,1,23,77,3,3,0,0,0,22.79,78.42ZM25,80.28c-0.16.42-.27,0.86-0.44,1.26a13.21,13.21,0,0,1-.62,1.18,0.25,0.25,0,0,1-.08.08h0a4.29,4.29,0,0,0-.44-3.2c-0.14-.32-0.3-0.61-0.47-0.91a4.47,4.47,0,0,1,.43-2.14,3.62,3.62,0,0,0,.23-1c0.09,0.43.18,0.85,0.25,1.29a16,16,0,0,1-.33,1.65,1.52,1.52,0,0,0,.1,1.1,0,0,0,0,0,.05,0,3.5,3.5,0,0,1,.14-1.87c0-.13.06-0.28,0.09-0.41A12,12,0,0,1,24,79.5s0.08,0.05.08,0a5.57,5.57,0,0,0,.06-0.91c0.07,0.28.13,0.54,0.18,0.83a5.66,5.66,0,0,1-.2,2.5,0,0,0,0,0,.06,0c0.7-1.11.28-2.64-.05-3.88a16,16,0,0,0-.4-2.43c0,0.06.08,0.13,0.13,0.18,0.28,0.63.81,1.1,1.09,1.74a2.92,2.92,0,0,1,.23.8,0.07,0.07,0,0,0,0,.06v0A5.14,5.14,0,0,1,25,80.28Zm0.44-2.8a0,0,0,0,0,0,0,4.55,4.55,0,0,1-.13.51,0,0,0,0,1,0,0c-0.3-1-1.15-1.66-1.48-2.64a0,0,0,0,0,0,0c0-.05,0-0.12-0.05-0.18a2.43,2.43,0,0,0-.16-0.61,0.05,0.05,0,0,0-.06,0L23.1,73.08a9.2,9.2,0,0,0,1.27,1.76,5.18,5.18,0,0,1,.87,1.26A2.83,2.83,0,0,1,25.45,77.47Zm0.26-1.06a0.77,0.77,0,0,1-.13.26,3.26,3.26,0,0,0-.64-1.36,10.41,10.41,0,0,1-2-2.81,0,0,0,0,0,0,0c-0.23-.89-0.45-1.77-0.71-2.66,0,0,0-.05,0-0.08a11.18,11.18,0,0,0,1.94,2.64,8.36,8.36,0,0,1,1.22,1.74,4.66,4.66,0,0,1,.38,2A1.77,1.77,0,0,1,25.71,76.41Zm0.37-2.35c-0.06.15-.09,0.33-0.16,0.48a1.5,1.5,0,0,1-.09.17,5.7,5.7,0,0,0-1-1.85,21.72,21.72,0,0,1-2.64-3.53c-0.13-.54-0.28-1.1-0.42-1.66,0.64,1.15,1.93,1.78,2.84,2.71A4.53,4.53,0,0,1,26.07,74.06Zm0.13-1.62a0.23,0.23,0,0,0,0,.09,0.76,0.76,0,0,0-.05.09A7,7,0,0,0,25.17,71c-1-1.34-2.8-2-3.52-3.57,0-.09-0.05-0.2-0.07-0.29A6.82,6.82,0,0,0,24,68.9a0,0,0,0,0,0,0c-0.87-.69-2-1-2.54-2.1-0.13-.57-0.29-1.14-0.44-1.71,0.49,1.13,1.7,1.73,2.66,2.39a6.21,6.21,0,0,1,1.93,2.1,5.22,5.22,0,0,1,.41,1,0.38,0.38,0,0,0,0,.17,0,0,0,0,0,.06,0A4.57,4.57,0,0,1,26.21,72.44Z"></path><path d="M39.49,56.53c-0.14-.05-0.31-0.06-0.45-0.12s-0.32-.13-0.48-0.19h0a3.33,3.33,0,0,1-1.36-.89l0,0s0,0,0,0,0,0,0,0L37,55.15a4.85,4.85,0,0,1-.34-0.5s0,0,0,0l0,0c-0.12-.21-0.23-0.44-0.33-0.65s-0.18-.39-0.24-0.58l0,0s0.08,0,0-.05L36,53.23c-0.22-.6-0.39-1.21-0.56-1.82h0a0,0,0,0,0,0,0,1.64,1.64,0,0,0-.1-0.22c-0.08-.28-0.15-0.58-0.24-0.86,0,0,0,0,0,0s0-.09,0-0.13a10.44,10.44,0,0,0-.78-1.92s0,0,0,0a1,1,0,0,0-.24-0.38l-0.17-.26a0.75,0.75,0,0,0-.14-0.22l0,0s0,0,0,0l-0.22-.24-0.13-.18c-0.15-.19-0.29-0.37-0.45-0.55h0a5,5,0,0,0-.63-0.64,2.74,2.74,0,0,0-.65-0.4,1.74,1.74,0,0,1-.72-0.5h0a0.81,0.81,0,0,0,.32.12,5.31,5.31,0,0,1,.5.3h0l0,0h0a0,0,0,0,0,0,0,3.7,3.7,0,0,0-2.42-1.36h0.08s0,0,0,0a1.47,1.47,0,0,0-.5-0.05c-0.64-.08-1.3-0.11-1.93-0.16a1,1,0,0,0,.34-0.75,1,1,0,0,0-.09-0.42,1.39,1.39,0,0,0,.49-1.06,1.41,1.41,0,0,0-.89-1.31,0.51,0.51,0,0,0,0,.12,1.3,1.3,0,0,1,.77,1.19,1.27,1.27,0,0,1-.44,1,1,1,0,0,0-1.72,0l0.1,0.08a0.87,0.87,0,0,1,.77-0.44,0.91,0.91,0,0,1,.77.44l0.05,0.1a0.88,0.88,0,1,1-1.63,0h0l0.05-.1-0.1-.08a1.27,1.27,0,0,1-.44-1,1.3,1.3,0,0,1,.85-1.21,0.55,0.55,0,0,0,0-.12,1.4,1.4,0,0,0-.95,1.32,1.42,1.42,0,0,0,.49,1.06h0a1,1,0,0,0-.09.42,1,1,0,0,0,.53.89,21.83,21.83,0,0,0-1.9,6,10.94,10.94,0,0,0,0,2,0.51,0.51,0,0,0,0,.11,0.07,0.07,0,0,0,0,0,14.21,14.21,0,0,0,.22,1.46,0.64,0.64,0,0,0,0,.18,0.05,0.05,0,0,0,0,0,13.38,13.38,0,0,0,.74,2.28A16.78,16.78,0,0,0,26,57.62a1.51,1.51,0,0,0,.17.43s0.05,0,0,0a0.55,0.55,0,0,1,0-.13l0.42,0.68a2.6,2.6,0,0,0,.39.61,0,0,0,0,0,0,0l0.07,0.09a3.26,3.26,0,0,0,.13.37s0.07,0,.05,0,0-.08,0-0.13c0.51,0.71,1,1.41,1.61,2.09L29.21,62a1.59,1.59,0,0,0,.26.33h0c0.55,0.69,1.08,1.41,1.62,2.12a6.44,6.44,0,0,1,1.47,2.7c0,0.09.16,0.08,0.14,0s0-.07,0-0.1a0,0,0,0,0,.05,0A1.15,1.15,0,0,0,33,66.38a5.24,5.24,0,0,1,.19-0.8s0,0,0,.06a0,0,0,0,0,.05,0,3.86,3.86,0,0,0,.27-1.3h0a0.36,0.36,0,0,0,0,0v0a0,0,0,0,0,.06,0,2,2,0,0,0,.12-0.38,2.83,2.83,0,0,1,.15-0.37A1.8,1.8,0,0,0,34,63.1a1.27,1.27,0,0,0,.07-0.79,0.62,0.62,0,0,0,.06-0.25c0-.15,0-0.29,0-0.45a1,1,0,0,0,0-.16l0,0A2.66,2.66,0,0,0,34.1,61h0A14.45,14.45,0,0,0,34,59.5a4.37,4.37,0,0,0-.18-1.23,1.78,1.78,0,0,0-.53-1,10.19,10.19,0,0,0-.17-0.74,1.28,1.28,0,0,0-.4-0.61,2.5,2.5,0,0,0-.85-1.36,2.85,2.85,0,0,0-.73-1.53,2.2,2.2,0,0,0-.41-0.38A1.43,1.43,0,0,0,30.53,52a2.28,2.28,0,0,0-.38-0.63A2.2,2.2,0,0,0,29.82,51a0,0,0,0,0,0,0,1.53,1.53,0,0,0-.32-0.77,1.12,1.12,0,0,0-.08-0.2,2.27,2.27,0,0,0-.11-0.25,1.77,1.77,0,0,0-.44-0.85,1.93,1.93,0,0,0,0-.54l0.14,0.11a1.27,1.27,0,0,0,.56.78,2,2,0,0,0,.51,1.29,2.41,2.41,0,0,0,.38,1.18,1.24,1.24,0,0,0,.23.33s0,0,0,0,0-.07-0.05-0.09L30.84,52a1.75,1.75,0,0,0,.52.9h0a1.14,1.14,0,0,0,.25.28,1.15,1.15,0,0,0,.39.52l0,0.09a0,0,0,0,0,0,0,0.09,0.09,0,0,0,0,0h0a0.05,0.05,0,0,0,.06,0,1.26,1.26,0,0,0,.4.62l0,0a3.18,3.18,0,0,0,.46.35,3.1,3.1,0,0,0,.6.36,3,3,0,0,0,.41.29s0,0,0,0a0.81,0.81,0,0,0,.14.11,1.44,1.44,0,0,0,.74.56h0a0.94,0.94,0,0,0,.44.13,1.14,1.14,0,0,0,.64.33,0,0,0,0,0,0,0l0.09,0a0.71,0.71,0,0,0,.26.05,1.24,1.24,0,0,0,.46.26,1.47,1.47,0,0,0,.37.13,1.8,1.8,0,0,0,1-.19,0,0,0,0,0,0,0,3.14,3.14,0,0,0,.39,0l0.27-.08,0.08,0h0l0.28-.05a0.6,0.6,0,0,0,.24,0A0.12,0.12,0,0,1,39.49,56.53Zm-2.77-1.59-0.12-.08a1.26,1.26,0,0,0-.55-0.29,5.25,5.25,0,0,1-.9-1.39,5.19,5.19,0,0,0,1.32,1.38Zm-0.81-1.69a7.4,7.4,0,0,0,.53,1.21,10.34,10.34,0,0,1-1.29-1.35c-0.1-.23-0.18-0.48-0.27-0.72s-0.15-.44-0.23-0.66a6,6,0,0,1,.72.8A3.2,3.2,0,0,0,35.91,53.24Zm-0.28-.86c0.05,0.2.12,0.39,0.18,0.59q-0.24-.29-0.45-0.6a1.54,1.54,0,0,0-.74-0.68c-0.17-.44-0.36-0.89-0.56-1.3h0a5,5,0,0,1,.9.88A9.8,9.8,0,0,1,35.62,52.38Zm-0.19-.57a7,7,0,0,0-.44-0.6,2.89,2.89,0,0,0-1-.89l-0.08-.16c-0.13-.25-0.28-0.51-0.43-0.75a3.79,3.79,0,0,1,.94.62l0.23,0.23s0,0,0,0a5.88,5.88,0,0,1,.55.87C35.33,51.37,35.36,51.6,35.43,51.81ZM35,50.19a1.74,1.74,0,0,0-.92-0.69s0,0,0,0a1.85,1.85,0,0,1,1,1.1,0,0,0,0,0,0,0l0.05,0.19A3.54,3.54,0,0,0,34.51,50a2,2,0,0,0-1-.63h0a4.54,4.54,0,0,0-.69-0.91A4.21,4.21,0,0,1,35,50,1.08,1.08,0,0,0,35,50.19Zm-1.51-.84h0a0.84,0.84,0,0,1-.07-0.12Zm1.39,0.41,0,0Zm-0.71-.65a3.12,3.12,0,0,0-1.42-.77L32.46,48a6,6,0,0,0-.51-0.52,5,5,0,0,1,1.32.56l0.05,0c0.3,0.21.62,0.36,0.9,0.59a3.35,3.35,0,0,1,.61,1.07A3.88,3.88,0,0,0,34.18,49.11Zm-0.12-1.22,0.13,0.23A2.13,2.13,0,0,0,33,47.45s0,0,0,0a2.47,2.47,0,0,1,1.28.87l0.14,0.28A3.89,3.89,0,0,0,33.38,48a3.54,3.54,0,0,0-1.5-.6,11.61,11.61,0,0,0-1-.83c0.59,0.17,1.16.35,1.73,0.55A3.32,3.32,0,0,1,34.07,47.89Zm-2.28-.44-0.2-.17,0-.06A3,3,0,0,1,31.78,47.45Zm-0.31-.29,0,0C31.25,47,31,46.86,30.83,46.7l-0.09-.13c0.08,0.06.16,0.13,0.24,0.18Zm2.44,0.49a3.83,3.83,0,0,0-1-.5,7.18,7.18,0,0,0-2.17-.68c-0.28-.21-0.57-0.39-0.85-0.59a0.9,0.9,0,0,1,.28,0L30.71,46a6.18,6.18,0,0,1,1.25.23,4.36,4.36,0,0,1,1.43.84l-0.17-.11a4.34,4.34,0,0,0-1.29-.61s0,0,0,0A5.25,5.25,0,0,1,33.91,47.65Zm-3.21-1.06L30,46.14A0.81,0.81,0,0,0,29.87,46c0.28,0.18.58,0.37,0.85,0.58A0,0,0,0,0,30.69,46.59Zm2.67,0.28,0,0-0.05,0h0Zm-0.08-.05a5.59,5.59,0,0,0-3.46-1l-0.77-.5c0.64,0.11,1.31.06,2,.15a3.71,3.71,0,0,1,1.54.58,3.55,3.55,0,0,0-.89-0.33s0,0.05,0,.05A3.23,3.23,0,0,1,33.29,46.82ZM29.84,46l-0.07,0h0c-0.2-.13-0.4-0.28-0.61-0.4l-0.05-.06C29.33,45.64,29.59,45.8,29.84,46Zm1.44-.8c0.28,0.17.59,0.28,0.85,0.46s0.31,0.23.45,0.36a3.91,3.91,0,0,0-1.22-.48A7.22,7.22,0,0,0,29,45.32l-0.58-.38-0.13-.08a2,2,0,0,0,1.12.07,3.92,3.92,0,0,1,1.83.26v0Zm-0.38-.34s0,0,0,0a1.12,1.12,0,0,0,.3.26,3.72,3.72,0,0,0-1.28-.3,3.63,3.63,0,0,1-1.62,0,2.94,2.94,0,0,0,1.21-.09,2.81,2.81,0,0,1,1.51.12Zm-1.74-.92h0.08a4.1,4.1,0,0,1,1.54.52c-0.19,0-.39-0.06-0.58-0.09a2.65,2.65,0,0,0-1.09-.1,2.38,2.38,0,0,1-1.56.08s0,0,0,0a1,1,0,0,0,1,.07,3.81,3.81,0,0,1,1.79,0s0,0,0,0l0.18,0a1.68,1.68,0,0,1,.54.18l0.44,0.31a2.82,2.82,0,0,0-1.37-.33c-0.73,0-1.45.35-2.15,0,0,0,0,0,0,0-0.26-.16-0.53-0.32-0.79-0.49A6.44,6.44,0,0,0,29.15,43.9Zm-0.9.9-0.14-.09,0.16,0.05A0,0,0,0,0,28.25,44.81Zm-1.2-1c0.58,0.08,1.17.05,1.75,0.08a4.57,4.57,0,0,1-1.67.24L26.93,44h0l-0.1-.07A1.07,1.07,0,0,0,27.05,43.79ZM26.79,44L27,44.12l0,0h0l1.82,1.2-0.08,0-0.15-.1a17,17,0,0,0-1.72-.93,0.86,0.86,0,0,1-.06-0.21,0,0,0,0,0,0,0A0.15,0.15,0,0,0,26.79,44Zm0,0.28,0,0.07-0.06-.05a0.05,0.05,0,0,1,0,0Zm0-.06v0h0Zm0-.16a0.27,0.27,0,0,0,0,.12h0v0h0S26.77,44.1,26.77,44.06Zm0,0.18h0v0h0v0Zm0,0.13,0.06,0.05a0.62,0.62,0,0,0,0,.33l0.05-.18a0.47,0.47,0,0,1,0-.11,5.17,5.17,0,0,1,1,2.11,4.1,4.1,0,0,0,.84,1.63,3.13,3.13,0,0,1,.05.57,9.58,9.58,0,0,0-1-.86,2.87,2.87,0,0,1-1.22-1.69c0-.05,0-0.09,0-0.14a0.91,0.91,0,0,1,0-.15,0.14,0.14,0,0,1,0-.08s0,0,0,0,0-.32,0-0.47a2.21,2.21,0,0,0,.71,1.08l0.56,0.49c-0.07-.12-0.13-0.23-0.19-0.34a2.89,2.89,0,0,1-.84-1,0.14,0.14,0,0,1,0,.05,3,3,0,0,0,.68.67l-0.08-.16-0.1-.08A1.65,1.65,0,0,1,26.79,45a1.26,1.26,0,0,1,0-.17,0.06,0.06,0,0,0,0,0A1.42,1.42,0,0,1,26.78,44.38Zm-0.25-.44h0.12l0,0.21a1.12,1.12,0,0,1-.28-0.22Zm-0.33-.06h0a0.46,0.46,0,0,0,.16.19v0a1.64,1.64,0,0,1,.23.16h0a18.17,18.17,0,0,0-.16,1.9,0.14,0.14,0,0,0,0,.06c0,0.26,0,.53,0,0.8a2.35,2.35,0,0,0,0,.24,0.45,0.45,0,0,0,0,.44c0,0.32,0,.64.07,1a0.92,0.92,0,0,0,0,.21c0,0.23,0,.48.08,0.71a1.15,1.15,0,0,0,.08.55A25.5,25.5,0,0,0,27.3,53c0.18,0.68.39,1.34,0.61,2l0,0c0.14,0.42.3,0.83,0.46,1.24,0,0.1.08,0.2,0.12,0.29,0.19,0.47.4,0.94,0.62,1.39a1.77,1.77,0,0,0,.28.58l0.13,0.25,0.33,0.65-0.43-.65A28.67,28.67,0,0,1,27,53.23a12.07,12.07,0,0,1-.79-2.9c-0.1-1.09-.1-2.19-0.11-3.28s0.08-2.07.08-3.1V43.88Zm-0.1.17v0.38a0,0,0,0,0-.08,0,9.57,9.57,0,0,1-.53,1.15C25.69,45.07,25.9,44.56,26.09,44Zm-0.94,2.46a9.29,9.29,0,0,0,.95-2c0,0.28,0,.55,0,0.83a0.05,0.05,0,0,0,0,0,4.13,4.13,0,0,1-.85,1.81c-0.13.2-.29,0.4-0.44,0.62C24.87,47.34,25,46.93,25.15,46.51ZM24.6,48.32c0.32-.48.63-1,0.93-1.47a4.34,4.34,0,0,0,.5-1c0,0.24,0,.48,0,0.72h0a22.84,22.84,0,0,1-1.21,2.11,7.55,7.55,0,0,0-.44.9C24.43,49.14,24.5,48.73,24.6,48.32Zm-0.33,2.1,0,0a7,7,0,0,1,.85-2.07A9.63,9.63,0,0,0,26,46.7c0,0.23,0,.46,0,0.69-0.38.7-.69,1.45-1,2.15a8.94,8.94,0,0,0-.72,1.72A7,7,0,0,1,24.27,50.42Zm0.12,2.35c-0.06-.34-0.09-0.69-0.12-1a21.63,21.63,0,0,1,.9-2.31A15.22,15.22,0,0,0,26,47.65c0,0.13,0,.24,0,0.37s0,0,0,0c-0.32.86-.83,1.66-1.12,2.52,0,0,0,0,0,0A19.28,19.28,0,0,0,26,48.15c0,0.13,0,.27,0,0.4,0,0,0,0,0-.05s0,0,0,0C25.93,50.07,24.56,51.24,24.39,52.78Zm0.13,0.66a4.94,4.94,0,0,1,.2-1.48,7.9,7.9,0,0,1,.54-1.21,5.37,5.37,0,0,0,.8-1.85c0,0.32,0,.64.08,0.95a14.72,14.72,0,0,1-1.05,2.46,5.44,5.44,0,0,0-.37,1.91C24.63,54,24.58,53.7,24.52,53.44Zm0.59,2c-0.12-.33-0.24-0.66-0.34-1a6.66,6.66,0,0,1,.62-2.65A6.7,6.7,0,0,0,26.15,50c0,0.28.08,0.57,0.13,0.85C26,52.32,24.94,53.86,25.11,55.42Zm1.57,3.09a3,3,0,0,1-.07-1.61s0,0,0,0a2.55,2.55,0,0,0-.09,1.31c-0.13-.21-0.25-0.41-0.37-0.63-0.18-1.19.51-2.29,0.78-3.45,0,0,0,0,0,0-0.22,1-1,2.15-.89,3.22-0.08-.14-0.16-0.29-0.23-0.44a4.11,4.11,0,0,1,.32-2.8A3.73,3.73,0,0,0,26.51,52h0a9.84,9.84,0,0,1-.28,1.38c-0.14.44-.34,0.87-0.46,1.32a4.14,4.14,0,0,0-.2,1.82,0.72,0.72,0,0,0-.08-0.2l-0.21-.49a4.59,4.59,0,0,1,.33-2.6,8,8,0,0,0,.69-2.29,12.05,12.05,0,0,0,.38,1.51c0,0.09.06,0.19,0.1,0.3s0,0,0,0c-0.06,1-.61,1.92-0.64,2.92,0,0,0,0,0,0a15.23,15.23,0,0,0,.65-2.85c0,0.1.07,0.21,0.11,0.33l0,0c0,0.13,0,.25,0,0.39a4.39,4.39,0,0,1,0,.47h0A2.07,2.07,0,0,0,27,53.34c0.13,0.39.25,0.78,0.38,1.17,0.13,1.5-.61,3-0.32,4.54Zm0.5,0.71a5.13,5.13,0,0,1,0-2.47,7.4,7.4,0,0,0,.31-1.92q0.21,0.62.45,1.21c-0.14,1.21-.62,2.66-0.25,3.88Zm0.61,0.85A4.87,4.87,0,0,1,27.7,58,14.15,14.15,0,0,0,28,56.12c0.13,0.31.27,0.62,0.41,0.93-0.07,1.34-.46,2.81.22,4Zm2.78,3.52c0.19-1.22-.82-2.39-0.55-3.61,0,0,0,0-.05,0a2.24,2.24,0,0,0,.13,1.52,9.58,9.58,0,0,1,.38,2c-0.18-.24-0.36-0.48-0.54-0.71a5,5,0,0,1-.44-1.6,13.58,13.58,0,0,1,.08-1.93s0,0,0,0a4.82,4.82,0,0,0,.15,3.24l-0.22-.28-0.19-.23a3.92,3.92,0,0,1-.29-2,4.05,4.05,0,0,0,0-1.71h0c-0.05.38,0,.77,0,1.15a12.28,12.28,0,0,0-.07,1.24,3.62,3.62,0,0,0,.13,1c-0.11-.13-0.2-0.24-0.28-0.36a4.67,4.67,0,0,1-.46-2.45,8.65,8.65,0,0,0,.15-1.67c0.05,0.12.12,0.23,0.18,0.35,0.14,0.89-.2,1.8,0,2.67,0,0,.05,0,0,0,0-.82.13-1.66,0-2.47L29,58.12A32.81,32.81,0,0,1,30.64,61a2.85,2.85,0,0,0,.14,1.67,16.27,16.27,0,0,1,.37,1.68Q30.84,64,30.57,63.58Zm-0.43-3.82h0L30.31,60a0.06,0.06,0,0,0,0,0h0Zm1.33,5.06c-0.09-.12-0.18-0.24-0.27-0.35A3.63,3.63,0,0,0,31,62.92a7.87,7.87,0,0,1-.33-1.86,8.47,8.47,0,0,1,.64,2,0.06,0.06,0,0,0,0,0,6,6,0,0,1,.09,1,0,0,0,0,0,0,0,2.18,2.18,0,0,0,.07.47c0,0.13.05,0.28,0.08,0.43Zm0.26,0.34a3,3,0,0,0-.12-0.66c0-.2-0.06-0.43-0.12-0.63h0a1.89,1.89,0,0,0,0-.22,7.42,7.42,0,0,0,.5.9,5.06,5.06,0,0,1,.59,2.13A6.32,6.32,0,0,0,31.73,65.16Zm0.94,1.91v0a0,0,0,0,1,0,0A0.08,0.08,0,0,0,32.67,67.07Zm0.19-.84a3.72,3.72,0,0,1-.13.53l-0.05.15a3.8,3.8,0,0,0-.44-2.12A5.39,5.39,0,0,1,31.47,63s0,0,0,0a0.19,0.19,0,0,0,0,0,4.79,4.79,0,0,0-.12-0.56,1.66,1.66,0,0,0-.07-0.34,6.33,6.33,0,0,0,.95,1.28,3.19,3.19,0,0,1,.84,2.2A2.43,2.43,0,0,0,32.86,66.23ZM33.25,65a1.93,1.93,0,0,0-.1.49h0a2.25,2.25,0,0,0-.47-1.69,17.81,17.81,0,0,1-1.47-2,0,0,0,0,0,0,0,6.16,6.16,0,0,0-.31-0.77,10.31,10.31,0,0,0,1,.88A6.54,6.54,0,0,1,32.87,63a3.22,3.22,0,0,1,.52,1.52A3.26,3.26,0,0,0,33.25,65Zm0.38-1.37a1.58,1.58,0,0,0-.15.34c-0.09-1.67-2.49-2.54-3.11-4a9.81,9.81,0,0,0,1.31,1A4.82,4.82,0,0,1,33.31,63a0,0,0,0,0,.05,0,2.9,2.9,0,0,0-1.21-1.66,19.77,19.77,0,0,1-2-1.57s0,0,0,0c-0.13-.25-0.28-0.5-0.4-0.75s-0.13-.23-0.18-0.35a7.45,7.45,0,0,0,1.73,1.15,7.23,7.23,0,0,1,2,1.41,2.55,2.55,0,0,1,.64,1.82C33.82,63.26,33.73,63.47,33.64,63.67ZM34,61.27s0,0.05,0,.07,0,0,0,0a2.3,2.3,0,0,0-1.53-1.68s0,0,0,.06A2.91,2.91,0,0,1,34,61.55s0,0,0,0,0,0.08,0,.12,0,0.23,0,.34a4.08,4.08,0,0,0-1.43-1.67c-1-.71-2.57-1.15-3.25-2.27-0.18-.39-0.36-0.79-0.53-1.19a6.82,6.82,0,0,0,2.45,1.46,7,7,0,0,1,2,1.35,2.56,2.56,0,0,1,.63.84A7.09,7.09,0,0,1,34,61.27Zm-0.86-3.76,0,0.1a0,0,0,0,0,.07,0,3.83,3.83,0,0,1,.47.8,0,0,0,0,0,0,0c0,0.29.06,0.59,0.08,0.88a3.2,3.2,0,0,0-2.25-1.81,0,0,0,0,0,0,0,5.56,5.56,0,0,1,1.39.7,5.4,5.4,0,0,1,.85,1.14,0,0,0,0,0,0,0c0,0.1,0,.19,0,0.29a4.06,4.06,0,0,0,0,.64,4.91,4.91,0,0,0-1.9-1.75c-0.83-.49-1.83-0.76-2.58-1.31a7.31,7.31,0,0,0,.78.37c0.66,0.26,1.32.54,2,.79a0,0,0,0,0,0,0,8.74,8.74,0,0,0-1.82-.78,5.39,5.39,0,0,1-1.56-.92,2.13,2.13,0,0,1-.28-0.51l0,0-0.28-.78a4.63,4.63,0,0,0,1.91,1c0.66,0.2,1.36.25,2,.47A2.44,2.44,0,0,1,33.12,57.51Zm-0.2-.87c-0.46-.56-1.56-0.55-2.16-0.82,0,0,0,0,0,0a2.89,2.89,0,0,0,1.1.38,1.93,1.93,0,0,1,.78.28,2,2,0,0,1,.38.38c0,0.08,0,.17,0,0.24L32.91,57a4.54,4.54,0,0,0-1.6-.55A8.27,8.27,0,0,1,29.39,56,2.06,2.06,0,0,1,28,54.61a0,0,0,0,0-.06,0c-0.09-.28-0.17-0.54-0.25-0.82a4.74,4.74,0,0,0,1.85,1.15c0.58,0.24,1.2.37,1.81,0.57A2.79,2.79,0,0,1,32.92,56.64Zm-1.15-1.81a0,0,0,0,0,.05,0,2.13,2.13,0,0,1,.31.36c0.13,0.18.23,0.41,0.34,0.61a7,7,0,0,0-2-.73A6.07,6.07,0,0,1,28.08,54a3,3,0,0,0,1.29.54,0,0,0,0,0,0,0,4.22,4.22,0,0,1-1.74-1,2,2,0,0,1-.17-0.29c0-.13-0.07-0.27-0.11-0.4s-0.13-.52-0.18-0.78a4.67,4.67,0,0,0,2.18,1.6,14.59,14.59,0,0,1,2,.89,4.47,4.47,0,0,1,.4.29S31.77,54.82,31.77,54.83Zm-0.59-1.38a1.58,1.58,0,0,0-1-.53s-0.05.05,0,.06A2.85,2.85,0,0,1,31.5,54a2.32,2.32,0,0,1,.17.44,5.69,5.69,0,0,0-1.35-.69c-1.1-.42-2.68-1-3.21-2.15a1.19,1.19,0,0,0,0-.17,3.12,3.12,0,0,0,1.33,1.24,0,0,0,0,0,0,0,3.85,3.85,0,0,1-1.37-1.37,0,0,0,0,0,0,0c-0.05-.26-0.1-0.52-0.14-0.77a4.8,4.8,0,0,0,1.41,1.31,14.42,14.42,0,0,0,2,.8A2,2,0,0,1,31.19,53.45Zm-1.36-2.13a3.55,3.55,0,0,0,.38.47L30.35,52c0.08,0.17.13,0.36,0.19,0.54a5.35,5.35,0,0,0-1.15-.44,5.08,5.08,0,0,1-2.05-1.27,4.13,4.13,0,0,0,.78.48c0.64,0.3,1.28.58,1.91,0.89,0,0,0,0,0,0a6.36,6.36,0,0,0-1.62-.81,3.93,3.93,0,0,1-1.52-1.15l0-.08c-0.05-.32-0.09-0.63-0.13-0.94a3.13,3.13,0,0,0,.76.76,5.2,5.2,0,0,0,1.27.59A2.19,2.19,0,0,1,29.83,51.33Zm-0.13-.39-0.13-.1a4.52,4.52,0,0,0-1.26-.56A3,3,0,0,1,26.68,49c0-.17,0-0.33,0-0.49a0.26,0.26,0,0,1,0-.07,0,0,0,0,0,0,0l0-.39a4.89,4.89,0,0,0,.49.69,4.32,4.32,0,0,0,1.21.86,3.58,3.58,0,0,1,.81.51A3.16,3.16,0,0,1,29.71,50.93Zm-0.41-1,0.07,0.18v0L29.31,50s0,0,0,0a1.23,1.23,0,0,0-.05-0.12h0Zm-0.13-.18a1.51,1.51,0,0,0-1.1-.74s0,0,0,.05a2.19,2.19,0,0,1,.77.49c0.13,0.13.23,0.29,0.36,0.42-0.44-.35-1-0.59-1.49-0.9a2.68,2.68,0,0,1-1.13-1.41,1.61,1.61,0,0,1,0-.2,0.58,0.58,0,0,1,0-.2s0,0,0,0l0,0c0-.16,0-0.31,0-0.47a2.8,2.8,0,0,0,.57.8c0.32,0.32.66,0.59,1,.88A4.56,4.56,0,0,1,29.16,49.7ZM28.3,47.38A13.49,13.49,0,0,1,28,45.75a1.23,1.23,0,0,0-.53-1c0.7,0.51.48,1.49,0.6,2.28C28,46.76,28,46.54,27.88,46.31c-0.18-.57-0.08-1.41-0.6-1.81h0a1.55,1.55,0,0,1,.42,1.22,3.51,3.51,0,0,0-.78-1.32v0l0-.07,0.6,0.29a3.26,3.26,0,0,1,1.36,2.61,7.69,7.69,0,0,0,.14,1.1A2.94,2.94,0,0,1,28.3,47.38Zm0.89,1.16,0.07,0s0,0,0,0l-0.11-.08a19.67,19.67,0,0,1-.31-2,3.17,3.17,0,0,0-.95-1.68c0.26,0.14.51,0.28,0.76,0.44,0,0,0,0,0,0,0.95,0.41.93,1.74,0.92,2.61,0,0.36,0,.8,0,1.21A1.46,1.46,0,0,1,29.19,48.54Zm0.49-1.46a2.77,2.77,0,0,0-.44-1.44c0.17,0.1.32,0.22,0.48,0.33a6.42,6.42,0,0,0,.44,1.15,1,1,0,0,1,0,.86s0,0,0,0a3,3,0,0,0-.47-2,2.12,2.12,0,0,0,.27.18c0.65,0.65.35,2.08,0.23,2.87a7.91,7.91,0,0,0-.11,1.35C29.51,49.41,29.74,48.16,29.67,47.08ZM30.77,52a2.48,2.48,0,0,0-.22-0.35,3.48,3.48,0,0,1,.16-2.23,3.49,3.49,0,0,0,.23-2.08s0,0,0,0A5.66,5.66,0,0,1,30.49,50a3.33,3.33,0,0,0-.13,1.37l-0.08-.18a2.34,2.34,0,0,1-.12-0.59s0,0,0-.05l0,0c0-.17,0-0.33,0-0.5,0-.59.16-1.18,0.23-1.77a3.14,3.14,0,0,0-.23-1.93l0.58,0.41,0.06,0c0.74,1.06.45,2.35,0.13,3.54A4,4,0,0,0,30.77,52Zm0.55,0.79a1.18,1.18,0,0,0-.22-0.28,2.34,2.34,0,0,1-.24-1.41c0.07-.52.23-1,0.34-1.54a3.6,3.6,0,0,0-.28-2.75l0.59,0.45c0.73,1.14.38,2.57,0.09,3.79a4.41,4.41,0,0,0-.1,1.94A1.54,1.54,0,0,1,31.32,52.8Zm0.77,0.93A0.29,0.29,0,0,1,32,53.66a4.29,4.29,0,0,1,0-1.5c0.08-.52.26-1,0.34-1.53h0a6.24,6.24,0,0,0-.43,2.9c-0.7-.9-0.21-2.24,0-3.26a4.16,4.16,0,0,0-.24-2.86c0.18,0.15.35,0.29,0.52,0.45h0s0,0,0,0c0.9,0.94.55,2.75,0.24,3.88A4.27,4.27,0,0,0,32.09,53.73Zm0.93,1-0.46-.33a2.12,2.12,0,0,1-.41-0.8,1.84,1.84,0,0,1,.16-1,11.1,11.1,0,0,0,.44-1.71,4.11,4.11,0,0,0-.23-2.59l0.28,0.33c0.14,0.18.28,0.36,0.41,0.55,0,0,0,0,0,0a4.45,4.45,0,0,1,.26,2A11.9,11.9,0,0,1,33,53a2.07,2.07,0,0,0,.42,2C33.25,54.85,33.14,54.78,33,54.7Zm1,0.58-0.21-.13A2.12,2.12,0,0,1,33,53.81a3.88,3.88,0,0,1,.33-1.65,3.93,3.93,0,0,0-.09-3c0.18,0.27.35,0.54,0.52,0.81h0c0,0.19.12,0.35,0.13,0.55a4.87,4.87,0,0,1,0,.92,13.54,13.54,0,0,1-.33,1.6s0,0,0,0a6,6,0,0,0,.38-1.79,5.18,5.18,0,0,0,0-.72,6.86,6.86,0,0,1-.07,3.05,2.85,2.85,0,0,0,.17,1.74Zm1.21,0.78-0.06,0c-0.1-.14-0.24-0.26-0.33-0.4A4.13,4.13,0,0,1,34.5,55s0,0,0,0A2.27,2.27,0,0,0,35,56l0,0-0.19-.09A1.73,1.73,0,0,1,34,54.54a6.15,6.15,0,0,1,.19-1.66,5.26,5.26,0,0,0,0-2.11A9.94,9.94,0,0,1,34.64,52a0,0,0,0,0,0,0,11.16,11.16,0,0,1,.26,2.8,2.31,2.31,0,0,0,.44,1.28Zm0.93,0.35-0.07,0h0a3.24,3.24,0,0,1-.82-2s-0.05,0-.06,0a2.31,2.31,0,0,0,.85,2,0.64,0.64,0,0,0-.21-0.05,1.42,1.42,0,0,1-.66-0.74A3.8,3.8,0,0,1,35,54.29a13,13,0,0,0,0-1.5L35,53a4.91,4.91,0,0,0,.53,1h0a7.24,7.24,0,0,0,.24,1,9.94,9.94,0,0,0,.32,1.08,1.36,1.36,0,0,0,.23.37Zm1.35,0.44a4.86,4.86,0,0,1-.61-0.49,2.41,2.41,0,0,1-.38-0.74,0,0,0,0,0-.06,0,1.47,1.47,0,0,0,1,1.23H37.26a4,4,0,0,1-.62-0.25l-0.11-.08v0h0a1.61,1.61,0,0,1-.44-0.72c-0.19-.59-0.31-1.21-0.54-1.77a7.21,7.21,0,0,0,.76.91l-0.06,0s0,0,0,0a3.58,3.58,0,0,1,.6,1,1.9,1.9,0,0,0,.62.64,1.27,1.27,0,0,0,.64.15A6.15,6.15,0,0,1,37.46,56.85ZM39,56.51l-0.34.08a1.8,1.8,0,0,1-1.25-.17,5,5,0,0,1-.84-1.26c0.4,0.38.84,0.74,1.26,1.11,0,0,0,0,0,0-0.55-.55-1.15-1-1.7-1.61,0.17,0.09.34,0.2,0.5,0.31l0.22,0.17a3.16,3.16,0,0,0,1.79,1.21s0,0,0,0a1.83,1.83,0,0,0,.33.18l0,0H39Z"></path></g>
        </svg>
      </g></svg>